<svg width="1115" height="767" viewBox="0 0 1115 767" fill="none" xmlns="http://www.w3.org/2000/svg">
<g clip-path="url(#clip0_71_2325)">
<path d="M371.508 197.65C371.508 197.65 420.333 235.346 480.619 245.927L487.611 366.852L629.809 346.585L625.979 242.403L634.906 240.603L639.059 239.203C639.059 239.203 667.497 305.328 634.906 384.548C634.906 384.548 624.855 391.643 588.739 395.024V392.576L572.086 365.3L562.54 364.966L547.345 398.081L549.078 401.9L483.791 413.215L464.118 414.834L420.047 412.7L396.468 411.662C396.468 411.662 370.108 409.005 359.428 400.729L350.044 383.005L348.148 378.871L362.048 364.909C362.048 364.909 379.549 346.376 381.34 338.099L387.018 338.357L388.313 337.318L388.666 329.575L386.77 328.775L394.801 329.014L399.479 327.718C399.479 327.718 411.302 316.032 397.011 303.051L382.988 302.689L381.321 302.432L381.006 296.718L373.023 296.451C373.023 296.451 357.161 267.499 335.935 262.765C335.935 262.765 349.701 218.012 371.489 197.641L371.508 197.65Z" fill="#D24E45"/>
<path d="M130.394 503.616L146.923 507.559L150.705 507.235L167.139 502.825L272.477 530.168L262.35 534.178L261.645 537.845L276.869 542.454L294.836 537.035L301.762 537.74L304.858 623.017L307.049 688.18L305.563 692.037L283.652 700.428L135.481 647.875L133.052 641.37L130.384 534.721L129.403 507.044C129.403 507.044 128.269 505.121 130.384 503.606L130.394 503.616Z" fill="#D24E45"/>
<path d="M782.514 438.167L795.566 435.558L797.09 558.407L782.514 555.731V438.167Z" fill="#D24E45"/>
<path d="M651.711 438.482L704.728 447.882L660.095 456.72L659.266 447.882L654.588 441.348L651.711 438.482Z" fill="#D24E45"/>
<path d="M645.614 487.701L756.858 464.082V468.292L763.642 475.282V551.712L645.614 529.121V487.701Z" fill="#D24E45"/>
<path d="M628.313 766.048L712.349 735.123L823.07 766.048H628.313Z" fill="#D24E45"/>
<path d="M589.901 8.67629L547.287 10.362L483.496 7.60009L482.372 2.68574L478.58 0.971436L431.994 4.26671L427.145 7.60961V12.3621V63.1627L428.564 67.4199L432.098 69.4675L493.032 71.2866L584.004 72.0104H589.548L593.159 68.0675L593.53 65.9818V12.2001L589.901 8.66677V8.67629ZM556.061 48.1149C549.069 50.7244 540.399 48.9816 533.169 48.3149C525.747 47.6387 518.23 47.2958 510.781 46.9625C507.627 47.1911 504.607 46.8196 501.358 46.591C497.281 46.3149 493.413 47.3911 489.374 46.553C489.04 46.4863 488.745 46.391 488.469 46.2768C487.44 46.372 486.42 46.4958 485.401 46.6768C481.657 47.3434 477.494 43.4577 480.018 39.6862C481.123 38.0386 481.876 34.0957 482.114 31.5528C481.819 30.9528 481.667 30.248 481.705 29.448C481.924 25.1051 485.134 21.3622 489.783 21.8669C490.536 21.9526 491.231 22.1812 491.851 22.5241C499.548 21.486 507.046 22.4003 514.601 23.2669C515.01 23.1622 515.449 23.0955 515.935 23.0955C523.632 23.1241 531.292 23.5622 538.951 24.3622C541.647 24.6479 544.353 24.8098 547.011 25.1527C547.554 24.9051 548.164 24.7336 548.84 24.686C562.197 23.7336 570.333 42.7815 556.081 48.1054L556.061 48.1149Z" fill="#D24E45"/>
<path d="M491.917 80.5629L498.243 78.4486H506.046L508.98 79.8867L527.614 80.2105L528.443 82.3724L533.435 83.1343V103.725L533.054 105.706L531.12 105.211L531.901 107.592H537.17L536.865 109.097L543.696 109.611L544.296 125.944H546.82L568.313 126.706L569.275 162.259L579.212 167.107L597.065 179.393L605.839 187.031L602.219 190.993L599.408 209.355L600.999 230.736L569.694 232.441L567.894 232.612L568.332 217.555L567.636 199.079L564.559 193.802L557.081 188.707L545.267 189.783L531.911 194.964L529.948 196.298C529.948 196.298 492.689 177.383 479.409 164.431L450.399 143.887L449.914 130.306L454.563 129.221L476.15 127.84L476.532 110.354L479.551 109.506L482.953 109.335L484.315 107.601L485.906 108.001L485.792 93.0488L481.047 92.1059L481.209 90.1249L485.315 89.4868L485.992 83.8105L489.526 83.4582L489.86 80.401L491.946 80.5819L491.917 80.5629Z" fill="#D24E45"/>
<path d="M188.974 409.272L188.783 413.596L196.043 415.577L216.935 415.719L233.54 413.986L236.056 413.319L236.227 409.519L231.197 406.596L212.639 404.7L196.043 405.481L188.974 409.272Z" fill="#D24E45"/>
<path d="M412.464 480.425L410.911 483.425L406.891 486.311L390.781 489.292L383.817 489.53L378.158 486.739L372.137 479.615H375.843L378.758 477.377L387.065 480.415L399.965 478.549L405.233 476.682L401.498 474.168L394.249 466.13L390.99 466.301L391.352 470.873L390.552 471.806L390.314 473.301L389.323 475.854L387.561 477.377L383.731 476.692L380.282 473.501L385.493 464.149L383.369 461.33L377.453 470.482L374.309 464.825L380.149 457.301L377.853 453.891L377.224 455.282L373.07 461.339L371.137 452.968L371.765 448.758L371.508 440.244L370.165 436.682L362.705 436.063L359.409 439.51L358.447 449.072V458.834L360.647 470.482L369.012 486.368L377.224 491.92L387.875 494.987L409.501 491.511L412.445 489.53L417.465 482.501L412.445 480.415L412.464 480.425ZM365.116 462.101C365.154 461.949 365.173 461.777 365.201 461.625C364.906 461.272 364.792 460.844 365.116 460.196C364.792 460.844 364.915 461.263 365.201 461.625C365.716 458.882 364.963 455.71 365.249 452.768C364.792 449.606 364.668 446.52 366.068 443.748V441.148C366.792 441.872 367.526 440.939 367.831 441.31C367.878 441.253 367.926 441.205 367.974 441.148C367.974 448.767 368.926 455.434 369.879 463.053C368.926 463.053 367.021 464.006 366.068 464.958C366.259 464.206 366.344 463.444 366.383 462.663C365.982 462.282 365.506 461.987 365.201 461.625C365.173 461.787 365.154 461.949 365.116 462.101V462.101ZM366.849 469.958C366.592 469.93 366.325 469.853 366.068 469.72C366.325 469.853 366.592 469.92 366.849 469.958C366.868 469.568 366.916 469.177 367.021 468.768C366.916 469.177 366.868 469.568 366.849 469.958C368.288 470.139 369.717 469.006 371.156 468.158C371.051 468.044 370.946 467.93 370.832 467.815C370.946 467.93 371.051 468.044 371.156 468.158C371.365 468.034 371.575 467.92 371.784 467.815C371.575 467.92 371.365 468.034 371.156 468.158C372.842 469.949 373.747 471.739 374.642 473.53C373.69 475.434 371.784 477.339 370.832 477.339C369.126 475.634 366.678 473.177 366.849 469.958Z" fill="#D24E45"/>
<path d="M350.606 431.129L353.216 428.958L352.473 426.024L352.797 423.653L350.406 421.072L342.775 420.186L342.28 421.072L343.147 423.253L339.269 428.958C339.269 428.958 332.21 451.196 352.769 459.12V462.596L351.483 464.825L352.14 467.663C352.14 467.663 349.015 469.368 345.557 468.396C342.099 467.425 332.229 459.082 332.229 439.339C332.229 439.339 333.744 428.224 326.532 431.129L323.883 439.72V454.139L327.103 467.282L334.315 478.568L341.108 483.958L348.177 487.577L352.854 487.416L355.817 484.435L349.215 483.958L338.135 478.568L331.067 468.653L327.57 459.834L326.055 450.977L327.199 443.244L330.047 454.701L333.362 462.139L337.802 467.825L342.28 471.796L348.643 473.32H353.959L356.122 471.425L361.743 471.996L359.018 453.587L354.255 450.996L350.987 447.425L349.92 441.167L350.616 431.139L350.606 431.129Z" fill="#D24E45"/>
<path d="M390.409 457.225C390.409 457.225 379.177 448.291 390.619 431.129L389.78 428.215L385.398 426.853L386.322 422.329L387.703 424.348L388.161 427.072L392.667 427.758L390.419 420.7L387.122 419.177H384.045L381.673 422.805L381.359 429.729L377.243 438.167L376.643 447.663L377.862 453.901L383.378 461.349L390.99 466.32L394.248 466.149L390.39 457.234L390.409 457.225Z" fill="#D24E45"/>
<path d="M639.069 239.203C639.069 239.203 669.192 303.109 633.19 388.31C633.19 388.31 617.757 457.358 502.406 458.825" stroke="black" stroke-width="2" stroke-miterlimit="10"/>
<path d="M483.477 7.59058V15.0097C483.477 15.0097 483.4 16.4002 480.619 16.2383C477.837 16.0764 476.617 16.2478 476.617 16.2478C476.617 16.2478 475.96 16.724 476.046 18.3526C476.131 19.9812 476.703 47.4768 476.703 47.4768C476.703 47.4768 476.217 49.6768 478.494 49.6768H481.924C481.924 49.6768 483.391 50.1625 483.477 51.6387C483.562 53.1149 484.296 63.6294 484.296 63.6294C484.296 63.6294 485.344 69.9056 480.171 70.3152C474.998 70.7247 463.318 70.4294 463.318 70.4294" stroke="black" stroke-width="2" stroke-miterlimit="10"/>
<path d="M467.338 1.69525C467.338 1.69525 473.55 1.90478 473.855 5.0191C474.159 8.13343 474.664 63.496 474.664 63.496C474.664 63.496 474.588 67.8294 471.006 68.2008C467.424 68.5723 440.568 69.839 440.568 69.839" stroke="black" stroke-width="2" stroke-miterlimit="10"/>
<path d="M459.764 17.0288C457.849 16.4859 455.792 16.8478 454.096 17.8859C450.771 19.924 445.579 24.9241 446.684 35.9719C448.294 51.9911 457.935 50.5054 457.935 50.5054C457.935 50.5054 468.643 50.2958 468.424 32.267C468.424 32.267 468.176 19.4002 459.755 17.0288H459.764Z" stroke="black" stroke-width="2" stroke-miterlimit="10"/>
<path d="M476.913 46.8767C479.085 44.3148 480.943 39.9338 481 32.4766C481 32.4766 481 23.7336 476.312 19.2383" stroke="black" stroke-width="2" stroke-miterlimit="10"/>
<path d="M463.566 19.7336C463.566 19.7336 455.573 22.2288 456.44 35.1623C457.306 48.1054 463.423 48.3054 463.423 48.3054" stroke="black" stroke-width="2" stroke-miterlimit="10"/>
<path d="M584.108 8.6763C584.108 8.6763 588.643 9.43821 588.643 11.524V65.8008C588.643 65.8008 588.643 71.9914 581.936 71.9914" stroke="black" stroke-width="2" stroke-miterlimit="10"/>
<path d="M490.574 24.9051C490.574 24.9051 484.286 25.5432 484.382 35.8957C484.382 35.8957 484.687 43.6958 490.003 44.6196L557.386 47.0958C557.386 47.0958 562.921 46.6482 563.016 38.1624C563.111 29.6765 557.481 28.248 556.319 28.1622L490.574 24.9146V24.9051Z" fill="black"/>
<path d="M563.025 38.1529C564.283 29.6099 558.843 26.9813 557.357 26.3337C553.47 24.6574 536.931 23.8574 536.931 23.8574C526.366 23.1812 493.756 21.5431 488.021 22.2669C482.286 22.9908 481.009 28.248 481.009 28.248" stroke="black" stroke-width="2" stroke-miterlimit="10"/>
<path d="M478.913 43.6672C478.913 43.6672 479.847 46.9339 482.609 46.8768L554.023 49.0673C557.366 49.172 560.539 47.3911 562.044 44.4006C563.006 42.4862 563.587 39.8291 563.206 36.1528" stroke="black" stroke-width="2" stroke-miterlimit="10"/>
<path d="M569.685 20.9431L569.523 54.2578C569.523 55.0388 568.875 55.6769 568.084 55.6578L543.61 55.1816L544.544 58.2293L570.285 58.8293C570.285 58.8293 573.838 59.0864 573.762 54.4007C573.686 49.7149 573.762 18.1335 573.762 18.1335" stroke="black" stroke-width="2" stroke-miterlimit="10"/>
<path d="M522.327 50.4958C522.899 54.7054 524.937 62.477 532.216 63.4103C533.006 63.5151 533.75 63.5436 534.426 63.5151C534.426 63.5151 538.456 63.9151 541.523 62.1436C544.258 60.5722 544.553 58.2198 544.553 58.2198" stroke="black" stroke-width="2" stroke-miterlimit="10"/>
<path d="M535.293 63.477L567.789 63.8579C567.789 63.8579 571.99 63.4294 573.686 56.7436" stroke="black" stroke-width="2" stroke-miterlimit="10"/>
<path d="M526.223 50.6292C526.966 53.9626 528.986 59.5436 534.14 59.8674C541.523 60.3245 543.267 54.3435 543.267 54.3435" stroke="black" stroke-width="2" stroke-miterlimit="10"/>
<path d="M494.518 47.2387V49.572L547.773 51.3435V49.0673" stroke="black" stroke-width="2" stroke-miterlimit="10"/>
<path d="M574.343 27.5622L579.374 27.6384C579.84 27.6384 580.221 28.0289 580.221 28.5051L580.155 49.6768C580.155 50.153 579.764 50.5435 579.278 50.5339L573.219 50.4387" stroke="black" stroke-width="2" stroke-miterlimit="10"/>
<path d="M483.934 52.953L499.777 53.3626C499.777 53.3626 499.825 53.3816 499.834 53.4102L500.511 55.8388C500.511 55.8388 500.491 55.915 500.453 55.915L483.934 55.6197" stroke="black" stroke-width="2" stroke-miterlimit="10"/>
<path d="M484.382 60.296H495.023C495.023 60.296 499.586 60.1817 500.539 55.915" stroke="black" stroke-width="2" stroke-miterlimit="10"/>
<path d="M494.518 49.572L477.665 49.0673" stroke="black" stroke-width="2" stroke-miterlimit="10"/>
<path d="M489.964 49.6482C489.964 49.6482 491.031 53.1721 492.68 53.1054" stroke="black" stroke-width="2" stroke-miterlimit="10"/>
<path d="M484.286 64.2103L568.808 64.4008" stroke="black" stroke-width="2" stroke-miterlimit="10"/>
<path d="M496.004 71.2675V77.22H506.046V71.5247" stroke="black" stroke-width="2" stroke-miterlimit="10"/>
<path d="M450.39 143.868L449.904 130.287C449.895 129.916 450.19 129.611 450.561 129.611L475.769 128.04C476.131 128.04 476.541 127.335 476.541 126.973C476.541 124.04 476.57 114.068 476.541 112.125C476.512 110.182 477.417 109.878 477.684 109.811C477.732 109.801 477.77 109.801 477.818 109.801H483.048C483.429 109.801 483.734 109.478 483.705 109.097C483.677 108.716 483.981 108.392 484.363 108.392H485.306C485.668 108.392 485.963 108.097 485.963 107.725L485.792 93.0392C485.792 92.6773 485.496 92.3916 485.134 92.3916H481.581C481.219 92.3916 480.923 92.0964 480.923 91.7345V90.6487C480.923 90.2868 481.219 89.9916 481.581 89.9916H485.068C485.43 89.9916 485.725 89.6964 485.725 89.3344V84.3058C485.725 83.9439 486.02 83.6487 486.382 83.6487H489.316C489.679 83.6487 489.974 83.3534 489.974 82.9915V81.2296C489.974 80.8677 490.269 80.5724 490.631 80.5724H493.013C493.242 80.5724 493.47 80.4677 493.594 80.2772C493.937 79.7438 495.328 78.6581 501.044 78.4772C506.76 78.2962 508.294 79.2391 508.599 79.6772C508.694 79.8105 508.837 79.8867 508.999 79.8867L525.48 79.7248" stroke="black" stroke-width="2" stroke-miterlimit="10"/>
<path d="M476.522 127.811L543.686 126.659" stroke="black" stroke-width="2" stroke-miterlimit="10"/>
<path d="M485.287 108.382L531.892 107.582" stroke="black" stroke-width="2" stroke-miterlimit="10"/>
<path d="M520.098 108.382V127.068" stroke="black" stroke-width="2" stroke-miterlimit="10"/>
<path d="M569.351 161.64C569.351 161.64 569.98 169.793 543.686 169.793C517.392 169.793 487.744 164.945 480.618 165.716" stroke="black" stroke-width="2" stroke-miterlimit="10"/>
<path d="M377.996 148.621C377.996 148.621 367.535 128.487 376.548 115.925C376.548 115.925 383.778 105.735 409.501 117.582C435.223 129.43 493.194 175.65 500.787 179.802C500.787 179.802 517.249 190.821 529.939 196.279C529.939 196.279 540.618 187.869 555.433 189.288C570.247 190.707 568.237 208.136 568.237 208.136L568.332 231.25C568.332 231.25 480.504 232.574 435.271 214.441C390.038 196.307 370.184 183.297 356.951 158.116C356.951 158.116 349.272 143.821 358.447 144.887C367.621 145.954 378.005 148.63 378.005 148.63L377.996 148.621Z" stroke="black" stroke-width="2" stroke-miterlimit="10"/>
<path d="M375.309 181.936C375.309 181.936 354.741 179.126 357.761 184.536C360.781 189.945 386.684 214.565 447.865 237.441C447.865 237.441 484.201 251.441 531.473 249.536C539.113 249.232 546.659 247.66 553.708 244.689C559.405 242.289 565.798 238.898 569.675 234.67C569.675 234.67 570.437 232.841 561.768 234.574C561.768 234.574 555.433 235.955 560.787 231.27" stroke="black" stroke-width="2" stroke-miterlimit="10"/>
<path d="M604.724 187.078C604.724 187.078 600.742 189.412 600.209 202.917C599.675 216.422 599.304 230.289 600.999 230.727C600.999 230.727 611.346 245.003 624.169 242.727C636.992 240.451 641.546 241.07 662.657 221.012C683.768 200.955 694.724 167.231 694.724 167.231C694.724 167.231 695.963 162.678 691.828 162.678H686.674C686.674 162.678 686.655 162.678 686.655 162.669C686.827 162.107 693.238 140.449 690.79 132.078C690.79 132.078 690.79 132.078 690.78 132.068L684.178 130.621H684.169C684.235 130.211 688.027 105.392 679.615 104.973H671.546C671.526 104.973 664.286 105.839 651.063 131.24C637.821 156.678 630.38 176.326 619.624 188.317C619.624 188.317 619.624 188.317 619.615 188.317C619.539 188.193 618.119 186.278 604.724 187.078C604.715 187.059 597.865 176.516 569.351 161.64C569.351 161.64 569.351 161.64 569.351 161.631L568.313 126.697C568.313 126.697 568.313 126.687 568.303 126.687H543.705C543.705 126.687 543.696 126.687 543.696 126.678V110.144C543.696 110.144 544.496 108.944 536.865 109.097C536.646 109.097 536.455 108.925 536.455 108.706V107.82C536.455 107.735 536.379 107.42 536.293 107.43C536.084 107.449 535.569 107.468 534.15 107.497C533.121 107.516 532.273 107.592 531.911 107.592C531.797 107.592 531.72 107.506 531.72 107.392C531.739 107.039 531.701 106.287 531.711 105.687C531.739 104.592 534.064 105.42 534.064 104.963C534.045 103.116 533.978 85.0963 533.978 85.0963C533.978 85.0963 534.759 82.5629 531.482 82.6582H528.738C528.586 82.6582 528.462 82.5343 528.462 82.382V80.4105C528.462 80.3057 528.376 80.22 528.272 80.22H525.699C525.576 80.22 525.48 80.1248 525.48 80.001V72.0104C525.48 72.0104 525.48 72.0009 525.49 72.0009H589.567C589.567 72.0009 593.626 70.4961 593.626 65.277C593.626 60.0579 593.769 14.4478 593.769 14.4478C593.769 14.4478 594.207 8.91439 588.672 8.47629L547.297 10.3715L483.505 7.60961H483.486C483.534 7.36199 484.563 1.50477 478.589 0.980957L432.775 3.99052C432.756 3.99052 427.154 5.50482 427.154 11.7335V63.1722C427.154 63.1722 426.906 69.4104 433.651 69.6675C440.396 69.9247 525.471 72.0295 525.471 72.0295" stroke="black" stroke-width="2" stroke-miterlimit="10"/>
<path d="M617.529 187.421C617.529 187.421 612.527 186.459 611.87 209.46C611.536 221.098 612.441 231.26 612.441 231.26C612.441 231.26 606.115 229.879 601 230.727" stroke="black" stroke-width="2" stroke-miterlimit="10"/>
<path d="M612.441 231.26C612.441 231.26 622.778 232.222 622.53 228.984C622.53 228.984 623.53 227.241 620.206 225.831C620.206 225.831 641.155 222.555 663.753 199.936C668.973 194.707 673.47 188.812 677.166 182.412C680.082 177.383 683.578 170.621 686.665 162.659" stroke="black" stroke-width="2" stroke-miterlimit="10"/>
<path d="M619.625 188.307C619.625 188.307 622.578 189.431 625.836 193.602C625.836 193.602 634 187.764 644.347 165.393C654.693 143.021 675.795 101.896 682.054 105.982" stroke="black" stroke-width="2" stroke-miterlimit="10"/>
<path d="M684.197 130.611C684.197 130.611 682.482 138.859 681.577 140.326C681.577 140.326 689.532 131.154 690.799 132.059" stroke="black" stroke-width="2" stroke-miterlimit="10"/>
<path d="M480.618 245.917L487.611 366.852L629.818 346.585L625.988 242.403" stroke="black" stroke-width="2" stroke-miterlimit="10"/>
<path d="M486.582 349.023L618.586 329.909L614.527 241.565" stroke="black" stroke-width="2" stroke-miterlimit="10"/>
<path d="M558.977 233.565C558.977 233.565 583.718 230.403 601.419 231.26" stroke="black" stroke-width="2" stroke-miterlimit="10"/>
<path d="M516.64 332.871C531.672 332.871 543.858 314.254 543.858 291.289C543.858 268.324 531.672 249.708 516.64 249.708C501.607 249.708 489.421 268.324 489.421 291.289C489.421 314.254 501.607 332.871 516.64 332.871Z" stroke="black" stroke-width="2" stroke-miterlimit="10"/>
<path d="M584.318 323.528C598.314 323.528 609.659 305.491 609.659 283.242C609.659 260.992 598.314 242.955 584.318 242.955C570.322 242.955 558.977 260.992 558.977 283.242C558.977 305.491 570.322 323.528 584.318 323.528Z" stroke="black" stroke-width="2" stroke-miterlimit="10"/>
<path d="M502.721 294.013L506.589 298.366L517.135 282.584L528.577 295.623L532.33 290.47L516.639 272.394L502.721 294.013Z" fill="black"/>
<path d="M571.304 285.442L574.915 289.604L584.871 274.622L595.655 287.413L599.418 282.108L584.318 264.556L571.028 285.108L571.304 285.442Z" fill="black"/>
<path d="M563.33 364.976L547.344 398.091L564.254 435.224C564.254 435.224 567.36 437.758 572.762 435.682L588.633 394.519C588.633 394.519 589.786 393.595 587.948 391.3C586.109 389.005 572.762 366.843 572.762 366.843C572.762 366.843 573.219 365.89 569.427 365.424C565.636 364.957 563.33 364.966 563.33 364.966V364.976Z" stroke="black" stroke-width="2" stroke-miterlimit="10"/>
<path d="M547.344 398.091L573.572 399.7C573.572 399.7 580.126 387.624 580.355 387.395C580.583 387.167 587.662 397.043 587.481 397.51" stroke="black" stroke-width="2" stroke-miterlimit="10"/>
<path d="M573.572 399.7L581.022 412.11C581.022 412.11 581.517 413.005 581.974 411.824" stroke="black" stroke-width="2" stroke-miterlimit="10"/>
<path d="M572.085 366.062L580.355 387.395" stroke="black" stroke-width="2" stroke-miterlimit="10"/>
<path d="M348.158 378.881C348.815 380.243 349.453 381.624 350.054 383.014C352.807 389.443 363.391 412.043 381.387 425.596" stroke="black" stroke-width="2" stroke-miterlimit="10"/>
<path d="M371.508 197.65C371.508 197.65 347.519 222.45 335.954 262.775" stroke="black" stroke-width="2" stroke-miterlimit="10"/>
<path d="M333.477 348.976L312.356 365.843C311.622 366.424 310.955 367.062 310.346 367.766C306.868 371.766 292.359 386.862 271.276 387.71C251.956 388.481 235.303 377.109 229.272 372.405C227.586 371.09 225.662 370.128 223.595 369.586C208.799 365.652 181.667 356.519 176.989 350.709C171.94 344.433 184.201 340.318 189.107 338.157C194.014 335.995 189.469 334.957 189.469 334.957C142.912 324.033 121.839 295.689 123.925 275.927C126.011 256.165 143.95 248.889 172.045 260.556C200.139 272.222 207.418 272.803 227.71 278.013C248.002 283.223 261.788 273.07 310.689 261.889C359.59 250.708 381.178 313.632 381.178 313.632C381.178 313.632 391.743 334.776 363.963 362.985C336.182 391.195 319.996 408.129 293.407 411.243C266.818 414.357 223.299 399.957 203.845 386.738C203.845 386.738 196.119 381.538 207.856 376.938C207.856 376.938 213.496 374.814 230.206 373.967H231.073" stroke="black" stroke-width="2" stroke-miterlimit="10"/>
<path d="M189.479 334.947C189.479 334.947 259.111 339.566 329.857 301.718C329.857 301.718 321.921 319.442 324.169 329.718C326.418 339.995 331.876 354.452 349.873 356.7C367.869 358.947 376.538 338.604 376.005 327.366C375.471 316.128 366.544 288.832 342.87 271.87C319.196 254.908 290.597 266.879 290.597 266.879" stroke="black" stroke-width="2" stroke-miterlimit="10"/>
<path d="M359.438 400.738C359.438 400.738 371.918 411.196 412.264 412.434C452.61 413.672 455.744 416.177 477.322 413.986C498.901 411.796 549.078 401.9 549.078 401.9" stroke="black" stroke-width="2" stroke-miterlimit="10"/>
<path d="M588.748 395.024C588.748 395.024 630.133 391.176 634.915 384.548" stroke="black" stroke-width="2" stroke-miterlimit="10"/>
<path d="M373.042 296.461L379.549 296.023C379.549 296.023 381.435 295.642 381.34 298.385C381.244 301.127 381.34 302.442 381.34 302.442C381.34 302.442 381.616 304.328 377.653 303.766L376.976 303.87" stroke="black" stroke-width="2" stroke-miterlimit="10"/>
<path d="M383.14 329.823L386.96 329.68C386.96 329.68 388.485 328.833 388.494 332.052C388.504 335.271 388.647 336.099 388.647 336.099C388.647 336.099 389.19 337.966 385.998 338.299C382.807 338.633 380.244 338.833 380.244 338.833" stroke="black" stroke-width="2" stroke-miterlimit="10"/>
<path d="M380.244 303.708L385.779 329.575" stroke="black" stroke-width="2" stroke-miterlimit="10"/>
<path d="M384.95 326.861C388.532 325.633 389.418 321.766 389.523 317.29C389.666 311.566 387.427 307.49 385.093 305.394C382.759 303.299 380.873 305.394 380.873 305.394" stroke="black" stroke-width="2" stroke-miterlimit="10"/>
<path d="M381.025 304.175C381.025 304.175 381.749 302.023 387.303 302.166C392.857 302.308 394.715 302.328 394.715 302.328C394.715 302.328 403.061 304.166 403.899 315.766C404.737 327.366 395.534 329.166 395.534 329.166L386.798 328.775C386.798 328.775 385.817 328.156 385.541 327.604" stroke="black" stroke-width="2" stroke-miterlimit="10"/>
<path d="M382.092 312.366C382.092 312.366 384.769 310.442 385.779 314.213C386.789 317.985 385.408 319.871 383.94 319.709" stroke="black" stroke-width="2" stroke-miterlimit="10"/>
<path d="M647.062 265.632C647.062 265.632 657.37 265.946 660.961 268.851C661.428 269.232 661.666 269.832 661.666 270.432V275.937C661.666 275.937 660.732 278.68 648.995 276.803" stroke="black" stroke-width="2" stroke-miterlimit="10"/>
<path d="M648.262 270.584C648.262 270.584 660.923 273.146 661.657 269.575" stroke="black" stroke-width="2" stroke-miterlimit="10"/>
<path d="M659.056 277.222L657.77 297.642V298.556C657.77 298.556 656.998 300.032 651.301 298.975" stroke="black" stroke-width="2" stroke-miterlimit="10"/>
<path d="M657.77 297.642C657.77 297.642 659.523 297.785 659.666 298.489C659.808 299.194 659.666 305.166 659.666 305.166C659.666 305.166 657.836 306.994 651.301 306.29" stroke="black" stroke-width="2" stroke-miterlimit="10"/>
<path d="M652.549 230.108C652.549 230.108 665.61 239.86 667.811 280.803C667.811 280.803 669.497 310.175 651.301 316.975" stroke="black" stroke-width="2" stroke-miterlimit="10"/>
<path d="M658.332 225.041C658.332 225.041 670.393 232.708 673.88 260.794C677.366 288.88 674.889 300.118 672.412 304.632C670.726 307.689 664.991 312.613 655.188 315.013" stroke="black" stroke-width="2" stroke-miterlimit="10"/>
<path d="M390.457 458.834C390.457 458.834 381.692 430.015 413.207 414.853C413.207 414.853 430.746 408.929 460.603 421.958C490.46 434.986 500.377 441.853 502.406 455.596C504.435 469.339 495.671 485.682 477.656 486.625C459.64 487.568 403.727 493.33 390.457 458.825V458.834Z" stroke="black" stroke-width="2" stroke-miterlimit="10"/>
<path d="M381.358 426.024L355.207 420.7C355.207 420.7 353.502 420.529 351.616 422.139" stroke="black" stroke-width="2" stroke-miterlimit="10"/>
<path d="M395.744 428.958L384.474 426.548" stroke="black" stroke-width="2" stroke-miterlimit="10"/>
<path d="M392.267 428.243C392.505 426.481 392.4 418.662 386.246 419.186C382.397 419.519 381.492 423.262 381.358 426.015C381.358 426.015 380.892 428.71 381.673 429.339C381.673 429.339 375.137 436.577 377.138 449.015C379.139 461.453 389.571 466.558 393.238 466.111L394.267 466.139" stroke="black" stroke-width="2" stroke-miterlimit="10"/>
<path d="M385.388 426.843C385.388 426.843 385.274 418.996 390.409 420.691" stroke="black" stroke-width="2" stroke-miterlimit="10"/>
<path d="M386.312 422.32C386.312 422.32 388.075 422.662 387.894 427.062" stroke="black" stroke-width="2" stroke-miterlimit="10"/>
<path d="M521.003 79.9343C521.003 79.9343 517.735 78.8771 517.878 82.2677C518.021 85.6582 517.878 107.582 517.878 107.582" stroke="black" stroke-width="2" stroke-miterlimit="10"/>
<path d="M525.719 126.973V115.811C525.719 115.563 525.909 115.373 526.157 115.363L539.942 115.097C540.19 115.097 540.399 115.297 540.399 115.544V126.049" stroke="black" stroke-width="2" stroke-miterlimit="10"/>
<path d="M550.431 126.973L551.803 169.488C551.803 169.488 565.198 179.012 565.893 195.707" stroke="black" stroke-width="2" stroke-miterlimit="10"/>
<path d="M561.673 356.3L562.158 367.405" stroke="black" stroke-width="2" stroke-miterlimit="10"/>
<path d="M389.332 427.653C389.332 427.653 389.828 430.434 390.79 430.862L390.619 431.129C390.447 431.377 390.352 431.472 390.123 431.796C389.266 432.958 385.522 436.672 385.512 444.053C385.512 452.71 387.703 455.929 390.457 458.844" stroke="black" stroke-width="2" stroke-miterlimit="10"/>
<path d="M381.673 429.339L390.619 431.129" stroke="black" stroke-width="2" stroke-miterlimit="10"/>
<path d="M391.133 465.92C391.133 465.92 392.2 469.453 391.867 470.253C391.533 471.053 389.59 471.663 389.856 475.206C389.856 475.206 390.19 477.749 385.503 477.149C380.816 476.549 371.241 466.244 371.108 451.587C371.108 451.587 373.699 437.139 368.955 436.91C364.21 436.682 362.391 441.929 362.162 448.52C361.933 455.11 361.724 464.215 365.249 472.834C368.774 481.454 375.261 491.063 385.045 494.187C385.045 494.187 388.113 495.92 394.534 494.187L409.52 491.53C409.52 491.53 413.816 489.939 417.484 482.52" stroke="black" stroke-width="2" stroke-miterlimit="10"/>
<path d="M415.065 481.625C415.065 481.625 411.835 487.863 407.672 488.968C403.509 490.073 388.628 491.92 388.628 491.92C388.628 491.92 379.653 491.578 372.946 481.273C366.24 470.968 366.059 467.615 365.02 459.92C363.982 452.225 365.249 438.453 367.449 440.425C369.65 442.396 367.678 446.358 367.916 450.539C368.154 454.72 368.555 467.577 378.767 477.377C378.767 477.377 381.692 480.111 385.512 480.177C389.333 480.244 390.085 480.177 393.62 479.539C397.154 478.901 405.442 476.825 405.442 476.825" stroke="black" stroke-width="2" stroke-miterlimit="10"/>
<path d="M368.955 436.901C368.955 436.901 363.572 436.415 362.705 436.901C361.838 437.386 358.227 439.805 358.475 452.729C358.723 465.653 362.667 475.52 363.953 477.806C366.887 483.025 371.898 495.806 390.78 494.949" stroke="black" stroke-width="2" stroke-miterlimit="10"/>
<path d="M360.666 471.358L356.665 471.634C351.082 473.977 347.357 472.806 347.357 472.806C339.088 471.568 332.676 463.644 329.78 453.891C326.884 444.139 328.475 435.177 328.475 435.177C326.818 431.043 326.265 446.958 326.684 451.92C327.103 456.882 328.618 465.92 333.582 472.873C337.878 478.901 344.128 482.654 348.329 484.311C350.768 485.273 353.712 484.768 355.808 484.425C358.456 483.996 356.227 485.263 356.227 485.263C355.255 485.977 354.14 486.749 353.397 487.158C351.778 488.035 349.672 487.568 349.672 487.568C349.672 487.568 340.86 486.349 333.038 476.558C325.217 466.768 323.979 455.568 323.893 448.158C323.807 440.748 324.055 430.377 329.085 430.786C334.115 431.196 331.638 436.329 332.334 444.853C333.029 453.377 336.059 463.577 344.899 468.33C348.434 470.234 352.149 467.672 352.149 467.672C351.33 464.215 352.645 462.977 352.645 462.977C353.388 461.11 353.007 459.701 352.778 459.12C352.711 458.958 352.568 458.853 352.407 458.844C349.939 458.691 340.412 453.529 338.621 440.824C336.83 428.12 342.784 423.262 342.784 423.262L342.089 421.643C341.394 420.024 343.556 420.1 343.556 420.1C343.556 420.1 348.948 420.796 349.568 420.7C350.187 420.605 352.264 422.567 352.807 423.662C353.35 424.758 353.188 425.577 353.188 425.577L352.483 427.081C352.483 427.081 354.807 429.367 350.625 431.139C350.625 431.139 348.224 437.986 351.244 446.891C351.244 446.891 353.998 452.891 358.494 452.739" stroke="black" stroke-width="2" stroke-miterlimit="10"/>
<path d="M350.396 421.062C350.396 421.062 352.168 424.167 351.616 424.691C351.063 425.215 346.862 429.415 346.862 435.986C346.862 442.558 348.529 453.063 358.075 455.253" stroke="black" stroke-width="2" stroke-miterlimit="10"/>
<path d="M353.207 462.596H358.466H359.018" stroke="black" stroke-width="2" stroke-miterlimit="10"/>
<path d="M358.466 463.158C358.466 463.158 356.532 465.025 358.075 468.225C358.075 468.225 349.101 470.93 344.89 468.32" stroke="black" stroke-width="2" stroke-miterlimit="10"/>
<path d="M370.184 463.739C369.059 464.463 367.811 465.053 366.42 465.425" stroke="black" stroke-width="2" stroke-miterlimit="10"/>
<path d="M378.167 453.11C378.167 453.11 376.643 457.663 373.089 461.33" stroke="black" stroke-width="2" stroke-miterlimit="10"/>
<path d="M371.346 467.606C370.031 468.615 368.421 469.177 366.773 469.177C366.754 469.177 366.735 469.177 366.716 469.177" stroke="black" stroke-width="2" stroke-miterlimit="10"/>
<path d="M380.158 457.301C380.158 457.301 377.462 461.444 374.318 464.825" stroke="black" stroke-width="2" stroke-miterlimit="10"/>
<path d="M375.166 473.311C374.042 474.615 372.775 475.977 371.346 477.387" stroke="black" stroke-width="2" stroke-miterlimit="10"/>
<path d="M383.112 461.063C383.112 461.063 381.721 464.92 377.462 470.482" stroke="black" stroke-width="2" stroke-miterlimit="10"/>
<path d="M378.072 476.701C377.3 477.768 376.481 478.844 375.624 479.911L375.214 480.425" stroke="black" stroke-width="2" stroke-miterlimit="10"/>
<path d="M386.141 463.587C386.141 463.587 383.883 468.149 380.158 473.701" stroke="black" stroke-width="2" stroke-miterlimit="10"/>
<path d="M372.146 480.025C372.146 480.025 377.005 479.873 378.719 480.673C378.719 480.673 382.444 480.368 383.788 481.53C383.788 481.53 388.57 481.787 389.323 483.273H393.2C393.2 483.273 395.153 482.873 395.277 484.825V485.92C395.277 485.92 397.106 486.282 397.106 487.139V487.882" stroke="black" stroke-width="2" stroke-miterlimit="10"/>
<path d="M378.996 487.882C378.996 487.882 383.921 490.063 389.866 489.406C395.811 488.749 406.519 486.368 406.519 486.368C406.519 486.368 410.206 485.416 412.473 481.196" stroke="black" stroke-width="2" stroke-miterlimit="10"/>
<path d="M342.765 423.243L351.921 424.348" stroke="black" stroke-width="2" stroke-miterlimit="10"/>
<path d="M345.547 487.568C345.547 487.568 343.985 486.463 343.909 489.987C343.832 493.511 343.909 496.159 343.909 496.159C343.909 496.159 343.346 497.997 346.709 498.482C349.739 498.911 381.406 505.511 387.703 506.825C388.399 506.968 388.789 507.054 388.789 507.054C388.789 507.054 391.276 506.816 392.152 506.33C393.029 505.844 392.476 494.987 392.476 494.987H389.028C389.028 494.987 389.38 505.025 389.104 505.654C388.828 506.282 388.904 506.682 388.084 506.702" stroke="black" stroke-width="2" stroke-miterlimit="10"/>
<path d="M350.978 487.882L380.968 493.578" stroke="black" stroke-width="2" stroke-miterlimit="10"/>
<path d="M364.058 479.615C364.058 479.615 360.685 479.682 359.628 480.882C359.628 480.882 355.598 479.787 354.226 482.301C352.607 485.292 345.547 483.035 345.547 483.035" stroke="black" stroke-width="2" stroke-miterlimit="10"/>
<path d="M502.073 465.425C502.073 465.425 515.315 466.025 516.963 481.196V488.892C516.963 488.892 517.43 492.644 501.006 494.33C501.006 494.33 496.033 496.673 483.076 497.616H482.133C482.133 497.616 467.205 503.625 451.066 502.216L411.339 494.978" stroke="black" stroke-width="2" stroke-miterlimit="10"/>
<path d="M410.787 491.482C410.787 491.482 411.063 491.578 411.34 492.578C411.616 493.578 411.892 500.625 411.892 500.625C411.892 500.625 412.073 503.273 409.606 503.187C407.138 503.101 398.536 501.359 398.536 501.359L393.41 502.825" stroke="black" stroke-width="2" stroke-miterlimit="10"/>
<path d="M398.526 501.359L398.335 493.578" stroke="black" stroke-width="2" stroke-miterlimit="10"/>
<path d="M294.845 537.045L781.58 440.244V556.112" stroke="black" stroke-width="2" stroke-miterlimit="10"/>
<path d="M302.962 560.445L781.58 458.834" stroke="black" stroke-width="2" stroke-miterlimit="10"/>
<path d="M302.962 552.093L781.58 451.472" stroke="black" stroke-width="2" stroke-miterlimit="10"/>
<path d="M302.124 544.378L780.751 444.053" stroke="black" stroke-width="2" stroke-miterlimit="10"/>
<path d="M294.846 537.045C294.846 537.045 301.848 536.521 302.124 538.273C302.4 540.026 307.049 688.189 307.049 688.189C307.049 688.189 308.097 691.98 302.534 693.494C296.97 695.009 283.07 700.428 283.07 700.428L136.872 648.941C136.872 648.941 134.623 648.456 134.1 643.76C133.576 639.065 129.403 507.054 129.403 507.054C129.403 507.054 127.964 503.206 132.623 504.368C137.281 505.53 276.868 542.464 276.868 542.464L294.836 537.045H294.846Z" stroke="black" stroke-width="2" stroke-miterlimit="10"/>
<path d="M276.878 542.464L283.07 700.437" stroke="black" stroke-width="2" stroke-miterlimit="10"/>
<path d="M131.356 504.159L131.137 500.892C131.137 500.892 151.553 497.044 152.772 497.13C153.992 497.216 165.595 500.016 166.081 500.644C166.567 501.273 166.081 503.625 166.081 503.625L147.504 507.997C147.218 508.063 146.942 507.854 146.923 507.568L146.761 504.682C146.761 504.682 163.004 501.425 165.233 500.559" stroke="black" stroke-width="2" stroke-miterlimit="10"/>
<path d="M146.761 504.673L131.613 500.997" stroke="black" stroke-width="2" stroke-miterlimit="10"/>
<path d="M166.081 503.616L275.106 530.178" stroke="black" stroke-width="2" stroke-miterlimit="10"/>
<path d="M261.644 537.854V534.892C261.644 534.892 261.492 533.33 263.902 532.864C266.313 532.397 279.965 528.654 279.965 528.654C279.965 528.654 281.603 527.873 284.023 528.654C286.443 529.435 297.513 532.245 297.513 532.245C297.513 532.245 298.761 532.397 298.837 533.807C298.913 535.216 298.837 535.759 298.837 535.759L298.875 536.692" stroke="black" stroke-width="2" stroke-miterlimit="10"/>
<path d="M262.35 534.188L276.878 538.397L298.399 532.692" stroke="black" stroke-width="2" stroke-miterlimit="10"/>
<path d="M276.878 538.397L276.926 543.711" stroke="black" stroke-width="2" stroke-miterlimit="10"/>
<path d="M307.135 679.618L417.722 715.504L464.766 702.609V688.856L305.573 641.313" stroke="black" stroke-width="2" stroke-miterlimit="10"/>
<path d="M307.135 666.313L417.627 700.437L417.723 715.504" stroke="black" stroke-width="2" stroke-miterlimit="10"/>
<path d="M417.627 700.437L464.766 688.856" stroke="black" stroke-width="2" stroke-miterlimit="10"/>
<path d="M305.944 652.894L442.53 694.313" stroke="black" stroke-width="2" stroke-miterlimit="10"/>
<path d="M132.68 651.484L281.003 704.752C281.536 704.942 281.898 705.437 281.918 705.999L284.614 764.59C284.652 765.381 284.013 766.048 283.223 766.048H138.777C138.034 766.048 137.424 765.457 137.386 764.714L132.689 655.98C132.689 655.98 132.308 651.894 132.689 651.484C133.07 651.075 138.043 649.351 138.043 649.351" stroke="black" stroke-width="2" stroke-miterlimit="10"/>
<path d="M284.623 764.59C284.623 764.59 284.566 766.048 289.063 766.048H381.644L381.073 703.609" stroke="black" stroke-width="2" stroke-miterlimit="10"/>
<path d="M340.431 690.904L289.644 703.609C289.644 703.609 288.215 704.171 288.215 706.875C288.215 709.58 290.32 766.047 290.32 766.047" stroke="black" stroke-width="2" stroke-miterlimit="10"/>
<path d="M281.784 699.98C281.784 699.98 279.345 700.266 279.688 704.285" stroke="black" stroke-width="2" stroke-miterlimit="10"/>
<path d="M84.1218 527.416C84.1218 527.416 71.7655 528.816 71.9275 530.178C72.0894 531.54 73.8329 532.797 78.9011 533.597C83.9694 534.397 130.575 543.407 130.575 543.407L130.946 554.816L72.7182 543.416C72.7182 543.416 71.394 541.673 71.232 537.873C71.0701 534.073 71.9275 530.188 71.9275 530.188" stroke="black" stroke-width="2" stroke-miterlimit="10"/>
<path d="M129.536 510.921C129.536 510.921 114.617 497.416 105.805 497.13C96.9925 496.844 83.2358 522.321 83.6835 524.873C84.1313 527.426 86.4749 531.959 99.4695 534.111C99.4695 534.111 115.989 537.435 130.394 537.759" stroke="black" stroke-width="2" stroke-miterlimit="10"/>
<path d="M158.764 487.016C158.764 487.016 130.651 477.044 107.034 490.682C83.4168 504.321 79.4441 523.568 81.7877 525.492C84.1313 527.416 89.0281 530.978 89.0281 530.978" stroke="black" stroke-width="2" stroke-miterlimit="10"/>
<path d="M152.772 497.13C152.772 497.13 143.245 491.358 137.567 489.473C131.889 487.587 134.947 483.796 143.826 486.416C152.705 489.035 158.755 492.387 158.755 492.387C158.755 492.387 155.049 493.473 151.372 495.93" stroke="black" stroke-width="2" stroke-miterlimit="10"/>
<path d="M167.138 502.835C184.125 505.682 201.53 498.606 201.53 498.606V488.32C201.53 488.32 199.73 489.216 186.497 491.33C173.264 493.444 158.479 493.549 157.831 488.977C157.183 484.406 179.561 482.768 179.561 482.768L201.673 487.911" stroke="black" stroke-width="2" stroke-miterlimit="10"/>
<path d="M157.821 488.968L157.812 497.539" stroke="black" stroke-width="2" stroke-miterlimit="10"/>
<path d="M660.475 456.72L766.499 435.558L782.514 438.167L795.566 435.558V432.72L779.98 430.062L766.423 432.339L766.471 435.386" stroke="black" stroke-width="2" stroke-miterlimit="10"/>
<path d="M766.423 432.339L782.628 434.958L795.566 432.72" stroke="black" stroke-width="2" stroke-miterlimit="10"/>
<path d="M782.514 438.167V434.939" stroke="black" stroke-width="2" stroke-miterlimit="10"/>
<path d="M795.566 435.558L797.09 558.407" stroke="black" stroke-width="2" stroke-miterlimit="10"/>
<path d="M394.334 667.818L664.305 598.588V621.265L686.76 615.474V625.893L718.246 617.331L717.322 681.904L731.908 678.199V740.685" stroke="black" stroke-width="2" stroke-miterlimit="10"/>
<path d="M628.313 766.048L712.349 735.123L823.07 766.048H628.313Z" stroke="black" stroke-width="2" stroke-miterlimit="10"/>
<path d="M718.246 617.331L718.341 601.484C718.341 601.484 677.624 612.598 673.48 613.608C669.335 614.617 669.031 611.179 669.031 611.179C669.031 611.179 669.431 607.236 669.431 601.484C669.431 595.731 673.975 593.912 673.975 593.912L732.755 578.921L731.888 664.465C731.888 664.465 731.946 669.732 727.077 670.951C722.209 672.17 717.427 673.58 717.427 673.58" stroke="black" stroke-width="2" stroke-miterlimit="10"/>
<path d="M452.553 652.894C452.553 652.894 460.993 651.008 460.993 658.065V669.027C460.993 669.027 461.098 674.237 453.829 675.646L437.052 680.57" stroke="black" stroke-width="2" stroke-miterlimit="10"/>
<path d="M466.643 649.275V676.675L445.074 682.97" stroke="black" stroke-width="2" stroke-miterlimit="10"/>
<path d="M1000.76 485.339L982.834 463.025L944.679 491.682L963.666 515.416L1073.16 430.253L1053.09 405.319L1037.91 417.243L1021.28 397.91L1037.91 384.357L1029.59 374.233L940.297 441.825L948.614 453.025L950.338 455.301L962.342 446.387L977.537 466.425" stroke="black" stroke-width="2" stroke-miterlimit="10"/>
<path d="M944.679 491.682L978.595 480.873L982.834 463.025" stroke="black" stroke-width="2" stroke-miterlimit="10"/>
<path d="M978.595 480.873L989.532 495.301" stroke="black" stroke-width="2" stroke-miterlimit="10"/>
<path d="M1037.91 417.243L1020.87 430.234L989.522 471.358L973.26 449.92C973.26 449.92 971.44 447.844 974.174 445.758C976.909 443.672 1018.66 412.472 1018.66 412.472C1018.66 412.472 1020.61 410.262 1023.6 413.643C1026.59 417.024 1030.66 422.11 1030.66 422.11" stroke="black" stroke-width="2" stroke-miterlimit="10"/>
<path d="M1037.38 383.109C1045.84 384.433 1054.89 387.995 1064.03 395.033C1102.74 424.853 1081.97 465.996 1075.55 474.682C1069.13 483.368 1040.02 508.321 999.64 487.444" stroke="black" stroke-width="2" stroke-miterlimit="10"/>
<path d="M987.693 398.272C987.693 398.272 999.954 387.71 1016.82 383.9" stroke="black" stroke-width="2" stroke-miterlimit="10"/>
<path d="M1071.58 431.482C1072.22 433.824 1072.76 436.339 1073.16 439.024C1073.16 439.024 1075.07 473.396 1045.55 483.558C1045.55 483.558 1024.9 489.749 1010.47 479.006" stroke="black" stroke-width="2" stroke-miterlimit="10"/>
<path d="M1021.28 397.91C1021.28 397.91 1057.2 394.595 1069.74 426.005" stroke="black" stroke-width="2" stroke-miterlimit="10"/>
<path d="M837.96 596.284C837.96 596.284 841.285 546.864 882.669 552.093C924.054 557.321 926.778 607.455 925.569 616.217C924.359 624.979 916.804 674.504 866.055 650.646C866.055 650.646 839.465 637.36 837.96 596.284V596.284Z" stroke="black" stroke-width="2" stroke-miterlimit="10"/>
<path d="M849.145 610.484C849.145 610.484 841.895 566.997 878.144 566.083C878.144 566.083 911.679 570.312 910.774 614.103C909.869 657.894 873.914 643.998 873.914 643.998C873.914 643.998 853.975 636.751 849.145 610.474V610.484Z" stroke="black" stroke-width="2" stroke-miterlimit="10"/>
<path d="M837.96 596.284C837.96 596.284 836.255 551.502 879.668 544.378C879.668 544.378 927.502 531.835 978.595 521.845C978.595 521.845 985.673 508.159 985.254 498.625" stroke="black" stroke-width="2" stroke-miterlimit="10"/>
<path d="M925.788 533.149C925.788 533.149 953.206 526.54 967.534 555.197C981.863 583.855 957.979 637.236 929.313 650.437C900.647 663.637 883.279 657.084 883.279 657.084C883.279 657.084 887.014 721.761 886.776 725.028C886.537 728.295 886.547 748.514 880.707 766.048H981.729C981.729 766.048 982.044 753.276 981.729 750.59C981.415 747.904 980.138 745.676 980.138 745.676C980.138 745.676 982.815 742.257 983.416 736.866C984.016 731.476 983.94 727.038 987.388 712.266C990.837 697.494 997.982 660.046 998.725 648.96C998.725 648.96 1034.95 658.808 1068.7 629.751C1068.7 629.751 1085.71 616.693 1090.88 596.988L1100 460.282C1100 460.282 1100.74 434.91 1105.66 429.243C1110.59 423.577 1113.79 403.376 1113.79 403.376C1113.79 403.376 1117.73 370.424 1094.82 358.814C1071.91 347.204 1050.47 345.242 1031.5 354.852C1031.5 354.852 1020.66 361.5 1000.2 383.919C1000.2 383.919 999.83 384.91 1000.45 385.652C1000.45 385.652 992.333 390.881 971.602 418.129C971.602 418.129 960.065 411.272 958.017 415.205C955.969 419.139 959.122 420.243 961.009 420.872C962.895 421.5 964.791 422.7 964.791 422.7" stroke="black" stroke-width="2" stroke-miterlimit="10"/>
<path d="M978.595 521.845C978.595 521.845 1026.77 510.949 1041.83 566.083C1041.83 566.083 1056.54 612.503 1010.21 629.646C1010.21 629.646 1000.34 636.313 998.725 648.951" stroke="black" stroke-width="2" stroke-miterlimit="10"/>
<path d="M984.063 520.968C984.063 520.968 1024.3 519.225 1036.38 569.236C1036.38 569.236 1046.44 604.474 1019.07 625.627" stroke="black" stroke-width="2" stroke-miterlimit="10"/>
<path d="M894.959 658.703C894.959 658.703 912.364 669.103 945.527 670.532C978.69 671.961 993.971 665.465 997.544 658.703" stroke="black" stroke-width="2" stroke-miterlimit="10"/>
<path d="M883.279 657.084C883.279 657.084 897.322 674.685 939.707 675.742C941.021 675.77 942.327 675.837 943.641 675.961C950.3 676.561 975.375 677.98 996.086 667.818" stroke="black" stroke-width="2" stroke-miterlimit="10"/>
<path d="M886.29 734.857C886.29 734.857 924.121 757.638 980.138 745.666" stroke="black" stroke-width="2" stroke-miterlimit="10"/>
<path d="M992.161 493.254C992.161 493.254 1043.51 515.94 1097.38 499.33" stroke="black" stroke-width="2" stroke-miterlimit="10"/>
<path d="M1050.47 492.101C1050.47 492.101 1072.92 494.892 1098.22 486.654" stroke="black" stroke-width="2" stroke-miterlimit="10"/>
<path d="M1015.59 368.128C1015.59 368.128 1046.42 352.814 1078.31 368.128C1110.21 383.443 1108.75 407.7 1109.04 422.7" stroke="black" stroke-width="2" stroke-miterlimit="10"/>
<path d="M1031.81 376.929V371.614C1031.81 371.614 1032.34 369.062 1038.2 369.252C1044.07 369.443 1043.93 371.424 1043.93 371.424L1044.6 380.957C1044.6 380.957 1041.73 382.986 1036.11 382.167" stroke="black" stroke-width="2" stroke-miterlimit="10"/>
<path d="M984.235 452.177C985.192 452.177 985.969 451.401 985.969 450.444C985.969 449.486 985.192 448.71 984.235 448.71C983.277 448.71 982.501 449.486 982.501 450.444C982.501 451.401 983.277 452.177 984.235 452.177Z" fill="black"/>
<path d="M1061.92 407.034C1063.77 407.034 1065.28 405.528 1065.28 403.672C1065.28 401.815 1063.77 400.31 1061.92 400.31C1060.06 400.31 1058.55 401.815 1058.55 403.672C1058.55 405.528 1060.06 407.034 1061.92 407.034Z" stroke="black" stroke-width="2" stroke-miterlimit="10"/>
<path d="M1077.42 433.32C1079.27 433.32 1080.78 431.814 1080.78 429.958C1080.78 428.101 1079.27 426.596 1077.42 426.596C1075.56 426.596 1074.05 428.101 1074.05 429.958C1074.05 431.814 1075.56 433.32 1077.42 433.32Z" stroke="black" stroke-width="2" stroke-miterlimit="10"/>
<path d="M1074.35 463.349C1076.21 463.349 1077.71 461.843 1077.71 459.987C1077.71 458.13 1076.21 456.625 1074.35 456.625C1072.49 456.625 1070.99 458.13 1070.99 459.987C1070.99 461.843 1072.49 463.349 1074.35 463.349Z" stroke="black" stroke-width="2" stroke-miterlimit="10"/>
<path d="M1055.89 478.873C1057.1 479.387 1057.94 480.577 1057.94 481.968C1057.94 483.825 1056.44 485.33 1054.58 485.33C1052.72 485.33 1051.22 483.825 1051.22 481.968C1051.22 481.739 1051.24 481.511 1051.28 481.292" stroke="black" stroke-width="2" stroke-miterlimit="10"/>
<path d="M1012.22 489.597C1014.08 489.597 1015.59 488.091 1015.59 486.235C1015.59 484.378 1014.08 482.873 1012.22 482.873C1010.37 482.873 1008.86 484.378 1008.86 486.235C1008.86 488.091 1010.37 489.597 1012.22 489.597Z" stroke="black" stroke-width="2" stroke-miterlimit="10"/>
<path d="M1000.45 385.652C1000.45 385.652 1012.33 378.786 1025.97 376.976" stroke="black" stroke-width="2" stroke-miterlimit="10"/>
<path d="M1044.32 376.976C1044.32 376.976 1087.93 381.738 1093.08 434.196C1093.08 434.196 1093.54 460.368 1077.71 472.434" stroke="black" stroke-width="2" stroke-miterlimit="10"/>
<path d="M983.072 403.672C983.072 403.672 980.348 392.995 982.501 389.691C984.654 386.386 988.903 385.91 990.322 387.805C991.742 389.7 990.503 391.405 992.38 393.148" stroke="black" stroke-width="2" stroke-miterlimit="10"/>
<path d="M1089.01 602.617C1089.01 602.617 1085.02 661.684 1081.03 665.675C1077.04 669.665 1047.65 679.056 996.439 665.675" stroke="black" stroke-width="2" stroke-miterlimit="10"/>
<path d="M531.501 456.853C531.501 456.853 530.339 459.968 531.501 460.434C532.663 460.901 597.827 472.015 597.827 472.015C597.827 472.015 605.544 474.482 623.616 469.701L624.302 468.939C624.302 468.939 635.829 469.187 647.042 464.758C647.042 464.758 653.959 465.091 659.494 461.949C659.494 461.949 662.876 445.748 654.035 440.253C654.035 440.253 647.814 435.301 631.828 434.834L603.4 430.529" stroke="black" stroke-width="2" stroke-miterlimit="10"/>
<path d="M174.293 482.758L173.188 443.244L211.219 451.472L253.471 444.053V491.482L248.583 492.263L248.488 470.825L217.402 475.692L217.25 498.178L211.734 499.825L201.521 498.606" stroke="black" stroke-width="2" stroke-miterlimit="10"/>
<path d="M211.219 451.472L211.733 499.825" stroke="black" stroke-width="2" stroke-miterlimit="10"/>
<path d="M195.357 443.244C195.357 443.244 194.938 437.491 195.357 437.348C195.357 437.348 197.291 440.11 211.133 439.834C224.976 439.558 228.015 437.624 228.777 436.31C228.777 436.31 229.739 436.034 229.815 437.139C229.892 438.243 229.815 442.386 229.815 442.386C229.815 442.386 226.291 446.463 211.143 446.253C195.995 446.044 195.366 443.244 195.366 443.244H195.357Z" stroke="black" stroke-width="2" stroke-miterlimit="10"/>
<path d="M196.043 429.691V419.891C196.043 419.891 198.882 421.977 211.743 421.51C224.604 421.043 226.386 420.739 228.548 418.958V428.377" stroke="black" stroke-width="2" stroke-miterlimit="10"/>
<path d="M188.974 409.272L188.793 413.596C188.793 413.596 194.719 416.681 213.448 415.891C232.178 415.1 236.065 413.319 236.065 413.319L236.227 409.519C236.227 409.519 235.046 404.776 212.639 404.71C212.639 404.71 193.966 404.357 188.974 409.272V409.272Z" stroke="black" stroke-width="2" stroke-miterlimit="10"/>
<path d="M188.974 409.272C188.974 409.272 205.608 413.605 236.227 409.519" stroke="black" stroke-width="2" stroke-miterlimit="10"/>
<path d="M198.034 415.577V420.091" stroke="black" stroke-width="2" stroke-miterlimit="10"/>
<path d="M225.833 415.062V419.681" stroke="black" stroke-width="2" stroke-miterlimit="10"/>
<path d="M253.47 470.968C253.47 470.968 271.019 470.873 268.866 474.777C268.866 474.777 268.38 478.101 253.47 479.463" stroke="black" stroke-width="2" stroke-miterlimit="10"/>
<path d="M268.856 474.777L269.037 487.282C269.037 487.282 265.531 489.72 253.461 489.92" stroke="black" stroke-width="2" stroke-miterlimit="10"/>
<path d="M190.784 509.635L336.602 480.425" stroke="black" stroke-width="2" stroke-miterlimit="10"/>
<path d="M340.222 479.463L362.734 475.301" stroke="black" stroke-width="2" stroke-miterlimit="10"/>
<path d="M343.166 467.282L351.921 465.777" stroke="black" stroke-width="2" stroke-miterlimit="10"/>
<path d="M331.4 469.292L338.135 468.139" stroke="black" stroke-width="2" stroke-miterlimit="10"/>
<path d="M268.933 480.015L328.675 469.768" stroke="black" stroke-width="2" stroke-miterlimit="10"/>
<path d="M371.193 453.568L376.747 454.701" stroke="black" stroke-width="2" stroke-miterlimit="10"/>
<path d="M364.401 452.091L368.45 452.968" stroke="black" stroke-width="2" stroke-miterlimit="10"/>
<path d="M353.207 449.901L358.466 450.977" stroke="black" stroke-width="2" stroke-miterlimit="10"/>
<path d="M268.933 486.377L345.176 472.558" stroke="black" stroke-width="2" stroke-miterlimit="10"/>
<path d="M645.614 487.701V529.121L845 567.874" stroke="black" stroke-width="2" stroke-miterlimit="10"/>
<path d="M756.858 464.082V468.291L776.598 488.635V459.891" stroke="black" stroke-width="2" stroke-miterlimit="10"/>
<path d="M763.641 475.282V551.712" stroke="black" stroke-width="2" stroke-miterlimit="10"/>
<path d="M769.081 480.892V553.778" stroke="black" stroke-width="2" stroke-miterlimit="10"/>
<path d="M774.044 486.006V554.083" stroke="black" stroke-width="2" stroke-miterlimit="10"/>
<path d="M650.872 438.482L704.727 447.882" stroke="black" stroke-width="2" stroke-miterlimit="10"/>
<path d="M657.941 413.596L771.92 430.52" stroke="black" stroke-width="2" stroke-miterlimit="10"/>
<path d="M644.584 354.29L657.941 351.833V421.034L759.859 436.501" stroke="black" stroke-width="2" stroke-miterlimit="10"/>
<path d="M657.941 351.833L645.48 350.585" stroke="black" stroke-width="2" stroke-miterlimit="10"/>
<path d="M617.547 416.177V432.662" stroke="black" stroke-width="2" stroke-miterlimit="10"/>
<path d="M657.941 421.034V430.52L631.838 434.824" stroke="black" stroke-width="2" stroke-miterlimit="10"/>
<path d="M305.573 639.475L580.85 572.036L657.941 589.931" stroke="black" stroke-width="2" stroke-miterlimit="10"/>
<path d="M565.903 575.693V613.35" stroke="black" stroke-width="2" stroke-miterlimit="10"/>
<path d="M580.441 609.598L580.85 572.036" stroke="black" stroke-width="2" stroke-miterlimit="10"/>
<path d="M571.771 574.264V611.836" stroke="black" stroke-width="2" stroke-miterlimit="10"/>
<path d="M575.144 573.055V610.636" stroke="black" stroke-width="2" stroke-miterlimit="10"/>
<path d="M376.1 662.37L686.36 582.245L700.907 578.912L580.44 553.778L304.868 619.255" stroke="black" stroke-width="2" stroke-miterlimit="10"/>
<path d="M304.868 631.379L580.85 565.216V573.055" stroke="black" stroke-width="2" stroke-miterlimit="10"/>
<path d="M297.732 766.048C297.732 766.048 305.573 726.276 338.031 722.552C370.489 718.828 375.252 757.781 374.242 766.048" stroke="black" stroke-width="2" stroke-miterlimit="10"/>
<path d="M360.476 766.048C360.476 766.048 365.573 732.038 342.88 722.323" stroke="black" stroke-width="2" stroke-miterlimit="10"/>
<path d="M397.649 708.99V766.048" stroke="black" stroke-width="2" stroke-miterlimit="10"/>
<path d="M381.645 766.048H628.313" stroke="black" stroke-width="2" stroke-miterlimit="10"/>
<path d="M5.10633 572.036C5.10633 572.036 0.952637 571.559 0.952637 574.674C0.952637 577.788 3.02948 581.588 3.02948 581.588L133.061 617.922L132.518 605.75L5.10633 572.036Z" stroke="black" stroke-width="2" stroke-miterlimit="10"/>
<path d="M5.10645 572.036L113.588 552.092" stroke="black" stroke-width="2" stroke-miterlimit="10"/>
<path d="M73.9089 543.645V558.531" stroke="black" stroke-width="2" stroke-miterlimit="10"/>
<path d="M26.5608 568.093L132.518 594.969" stroke="black" stroke-width="2" stroke-miterlimit="10"/>
<path d="M61.9338 577.064L130.394 565.216" stroke="black" stroke-width="2" stroke-miterlimit="10"/>
<path d="M310.365 713.552C312.548 713.552 314.318 711.445 314.318 708.847C314.318 706.248 312.548 704.142 310.365 704.142C308.181 704.142 306.411 706.248 306.411 708.847C306.411 711.445 308.181 713.552 310.365 713.552Z" stroke="black" stroke-width="2" stroke-miterlimit="10"/>
<path d="M364.372 698.742C363.686 700.123 362.419 701.047 360.971 701.047C358.79 701.047 357.018 698.942 357.018 696.342" stroke="black" stroke-width="2" stroke-miterlimit="10"/>
<path d="M366.382 730.742C368.566 730.742 370.336 728.636 370.336 726.038C370.336 723.439 368.566 721.333 366.382 721.333C364.199 721.333 362.429 723.439 362.429 726.038C362.429 728.636 364.199 730.742 366.382 730.742Z" stroke="black" stroke-width="2" stroke-miterlimit="10"/>
<path d="M305.687 745.695C304.22 745.009 303.181 743.304 303.181 741.314C303.181 738.714 304.953 736.609 307.135 736.609C308.231 736.609 309.221 737.133 309.936 737.99" stroke="black" stroke-width="2" stroke-miterlimit="10"/>
<path d="M732.774 696.304L772.416 699.675V751.905" stroke="black" stroke-width="2" stroke-miterlimit="10"/>
<path d="M772.416 699.675L811.152 686.418C811.152 686.418 812.409 685.466 810.694 683.475C808.979 681.485 801.768 673.456 801.768 673.456L743.702 692.866L731.888 689.599" stroke="black" stroke-width="2" stroke-miterlimit="10"/>
<path d="M743.711 692.866L740.291 582.236C740.291 582.236 734.232 580.341 759.964 576.474" stroke="black" stroke-width="2" stroke-miterlimit="10"/>
<path d="M800.872 585.407L801.777 673.456" stroke="black" stroke-width="2" stroke-miterlimit="10"/>
<path d="M303.601 579.988L313.099 578.169L314.175 574.559L313.632 563.683L315.252 562.474L324.922 560.445V556.112" stroke="black" stroke-width="2" stroke-miterlimit="10"/>
<path d="M837.951 593.045L593.283 541.035V534.292L834.083 582.236L834.292 592.017" stroke="black" stroke-width="2" stroke-miterlimit="10"/>
<path d="M730.564 570.226L712.368 574.264L710.263 573.055L595.893 548.492L611.612 544.93" stroke="black" stroke-width="2" stroke-miterlimit="10"/>
<path d="M304.868 613.35L602.228 542.94" stroke="black" stroke-width="2" stroke-miterlimit="10"/>
<path d="M686.36 582.245L637.154 572.036V577.14L674.461 585.322" stroke="black" stroke-width="2" stroke-miterlimit="10"/>
<path d="M798.424 637.551C798.424 637.551 800.186 599.646 774.978 598.579C749.77 597.512 745.302 640.856 746.75 652.189C747.97 661.77 757.087 682.675 777.503 676.38C777.503 676.38 795.737 667.256 798.424 637.541V637.551Z" stroke="black" stroke-width="2" stroke-miterlimit="10"/>
<path d="M771.758 598.693C771.758 598.693 789.859 615.15 783.305 643.627C776.75 672.104 759.983 674.58 759.983 674.58" stroke="black" stroke-width="2" stroke-miterlimit="10"/>
<path d="M623.445 493.578V524.149L645.614 529.121" stroke="black" stroke-width="2" stroke-miterlimit="10"/>
<path d="M631.028 490.797V525.854" stroke="black" stroke-width="2" stroke-miterlimit="10"/>
<path d="M637.735 489.368L637.154 527.226" stroke="black" stroke-width="2" stroke-miterlimit="10"/>
<path d="M304.248 600.112L553.213 543.711V538.397L303.601 594.522" stroke="black" stroke-width="2" stroke-miterlimit="10"/>
<path d="M568.17 504.14L623.444 511.349" stroke="black" stroke-width="2" stroke-miterlimit="10"/>
<path d="M553.213 538.397L493.365 527.787" stroke="black" stroke-width="2" stroke-miterlimit="10"/>
<path d="M623.445 524.149L541.438 509.635" stroke="black" stroke-width="2" stroke-miterlimit="10"/>
<path d="M495.604 519.549C495.604 519.549 496.166 527.702 489.793 529.94C483.419 532.178 477.208 535.035 477.208 535.035L460.317 538.407L313.909 569.264" stroke="black" stroke-width="2" stroke-miterlimit="10"/>
<path d="M314.176 574.559L458.964 544.378C458.964 544.378 460.317 544.092 460.317 538.397" stroke="black" stroke-width="2" stroke-miterlimit="10"/>
<path d="M311.631 586.634C313.856 586.196 315.55 585.285 315.414 584.599C315.279 583.912 313.366 583.711 311.141 584.149C308.916 584.587 307.222 585.498 307.357 586.185C307.492 586.871 309.406 587.072 311.631 586.634Z" stroke="black" stroke-width="2" stroke-miterlimit="10"/>
<path d="M340.701 580.909C342.926 580.471 344.62 579.56 344.485 578.873C344.349 578.187 342.436 577.986 340.211 578.424C337.986 578.862 336.292 579.773 336.427 580.459C336.562 581.146 338.476 581.347 340.701 580.909Z" stroke="black" stroke-width="2" stroke-miterlimit="10"/>
<path d="M368.592 575.238C370.817 574.8 372.511 573.888 372.376 573.202C372.241 572.516 370.327 572.314 368.102 572.752C365.877 573.19 364.183 574.102 364.319 574.788C364.454 575.474 366.367 575.676 368.592 575.238Z" stroke="black" stroke-width="2" stroke-miterlimit="10"/>
<path d="M394.557 569.316C396.782 568.878 398.476 567.967 398.341 567.28C398.206 566.594 396.293 566.393 394.068 566.831C391.843 567.269 390.149 568.18 390.284 568.866C390.419 569.553 392.332 569.754 394.557 569.316Z" stroke="black" stroke-width="2" stroke-miterlimit="10"/>
<path d="M423.04 562.546C425.259 562.08 426.941 561.146 426.797 560.462C426.653 559.777 424.737 559.601 422.518 560.067C420.299 560.534 418.617 561.467 418.761 562.152C418.905 562.837 420.82 563.013 423.04 562.546Z" stroke="black" stroke-width="2" stroke-miterlimit="10"/>
<path d="M452.03 556.444C454.249 555.977 455.932 555.044 455.788 554.36C455.643 553.675 453.728 553.498 451.509 553.965C449.289 554.432 447.607 555.365 447.751 556.05C447.895 556.734 449.811 556.911 452.03 556.444Z" stroke="black" stroke-width="2" stroke-miterlimit="10"/>
<path d="M479.848 550.41C482.067 549.944 483.749 549.01 483.605 548.326C483.461 547.641 481.545 547.465 479.326 547.931C477.107 548.398 475.425 549.331 475.569 550.016C475.713 550.701 477.629 550.877 479.848 550.41Z" stroke="black" stroke-width="2" stroke-miterlimit="10"/>
<path d="M505.739 544.16C507.959 543.693 509.641 542.76 509.497 542.075C509.353 541.391 507.437 541.214 505.218 541.681C502.999 542.148 501.316 543.081 501.461 543.766C501.605 544.45 503.52 544.627 505.739 544.16Z" stroke="black" stroke-width="2" stroke-miterlimit="10"/>
<path d="M329.606 575.757C331.831 575.319 333.525 574.408 333.39 573.722C333.254 573.035 331.341 572.834 329.116 573.272C326.891 573.71 325.197 574.621 325.332 575.308C325.467 575.994 327.381 576.195 329.606 575.757Z" stroke="black" stroke-width="2" stroke-miterlimit="10"/>
<path d="M357.497 570.079C359.722 569.641 361.416 568.729 361.281 568.043C361.146 567.356 359.233 567.155 357.008 567.593C354.783 568.031 353.089 568.942 353.224 569.629C353.359 570.315 355.272 570.517 357.497 570.079Z" stroke="black" stroke-width="2" stroke-miterlimit="10"/>
<path d="M383.462 564.155C385.687 563.717 387.381 562.806 387.246 562.119C387.111 561.433 385.198 561.231 382.973 561.669C380.748 562.107 379.054 563.019 379.189 563.705C379.324 564.392 381.237 564.593 383.462 564.155Z" stroke="black" stroke-width="2" stroke-miterlimit="10"/>
<path d="M411.958 557.396C414.177 556.929 415.859 555.996 415.715 555.311C415.571 554.627 413.655 554.45 411.436 554.917C409.217 555.383 407.535 556.317 407.679 557.001C407.823 557.686 409.738 557.863 411.958 557.396Z" stroke="black" stroke-width="2" stroke-miterlimit="10"/>
<path d="M440.946 551.294C443.165 550.827 444.848 549.894 444.704 549.209C444.559 548.525 442.644 548.348 440.425 548.815C438.205 549.281 436.523 550.215 436.667 550.899C436.811 551.584 438.727 551.76 440.946 551.294Z" stroke="black" stroke-width="2" stroke-miterlimit="10"/>
<path d="M468.766 545.269C470.985 544.803 472.667 543.869 472.523 543.185C472.379 542.5 470.464 542.324 468.244 542.79C466.025 543.257 464.343 544.19 464.487 544.875C464.631 545.559 466.547 545.736 468.766 545.269Z" stroke="black" stroke-width="2" stroke-miterlimit="10"/>
<path d="M494.646 539.01C496.865 538.543 498.548 537.61 498.404 536.925C498.259 536.241 496.344 536.064 494.125 536.531C491.905 536.997 490.223 537.931 490.367 538.615C490.511 539.3 492.427 539.476 494.646 539.01Z" stroke="black" stroke-width="2" stroke-miterlimit="10"/>
<path d="M756.668 591.398C758.493 591.398 759.973 589.637 759.973 587.464C759.973 585.292 758.493 583.531 756.668 583.531C754.842 583.531 753.362 585.292 753.362 587.464C753.362 589.637 754.842 591.398 756.668 591.398Z" stroke="black" stroke-width="2" stroke-miterlimit="10"/>
<path d="M751.942 618.217C750.818 617.589 750.046 616.227 750.046 614.655C750.046 612.484 751.523 610.722 753.352 610.722C753.971 610.722 754.543 610.922 755.038 611.274" stroke="black" stroke-width="2" stroke-miterlimit="10"/>
<path d="M792.26 606.093C794.086 606.093 795.566 604.332 795.566 602.16C795.566 599.987 794.086 598.226 792.26 598.226C790.434 598.226 788.954 599.987 788.954 602.16C788.954 604.332 790.434 606.093 792.26 606.093Z" stroke="black" stroke-width="2" stroke-miterlimit="10"/>
<path d="M218.164 516.311L343.87 491.482" stroke="black" stroke-width="2" stroke-miterlimit="10"/>
<path d="M811.161 686.427V762.724" stroke="black" stroke-width="2" stroke-miterlimit="10"/>
<path d="M173.188 443.244L195.757 437.348L195.576 429.691C195.576 429.691 198.939 432.586 212.057 432.243C225.176 431.901 228.32 428.824 229.044 428.377V436.024" stroke="black" stroke-width="2" stroke-miterlimit="10"/>
<path d="M253.471 444.053L229.806 437.139" stroke="black" stroke-width="2" stroke-miterlimit="10"/>
</g>
<defs>
<clipPath id="clip0_71_2325">
<rect width="1115" height="767" fill="white"/>
</clipPath>
</defs>
</svg>
