<svg width="428" height="335" viewBox="0 0 428 335" fill="none" xmlns="http://www.w3.org/2000/svg">
<g clip-path="url(#clip0_353_1059)">
<g clip-path="url(#clip1_353_1059)">
<path d="M139.147 113.368L122.082 114.82L117.598 112.367L70.2843 115.887L69.2172 221.085L68.3132 344.529L72.9297 336.666L78.4355 332.857L85.1491 331.671L92.1369 331.197L102.281 328.803L109.232 324.297L113.775 317.983L119.347 313.314L125.794 307.26L132.997 294.468L133.197 291.763L133.012 289.481L97.1092 266.248L99.2878 262.72L95.6716 261.971L94.6193 259.882C94.6193 259.882 101.829 248.172 108.832 242.629L112.018 244.274L113.641 244.007L114.716 245.163L115.116 246.483L119.095 250.477L121.378 250.181L125.979 254.079L132.745 247.587L136.235 247.276L137.243 246.49L144.105 253.249L144.809 252.374L140.889 245.023L140.481 241.917L142.045 237.878L141.548 236.848L142.623 234.477L142.045 232.832L145.764 228.978L150.196 228.837L152.478 227.466L157.702 228.467L178.933 250.662L196.309 251.233L227.61 247.757L269.863 246.742L274.472 247.757L280.111 252.678L283.594 262.008L284.794 276.689L284.142 287.635L279.852 295.573L265.639 298.974L259.496 299.604L256.11 306.808L253.405 346.33C253.405 346.33 251.975 366.488 254.68 373.224C257.384 379.961 258.718 398.784 258.718 398.784L260.437 403.387L268.262 405.084L272.694 406.247C272.694 406.247 281.141 414.066 281.201 420.476L282.268 432.408L281.845 438.766C281.845 438.766 280.726 457.286 271.967 459.888C263.209 462.489 225.12 464.416 225.12 464.416L198.169 463.148L194.479 463.26L192.99 472.708L194.079 488.205L197.836 499.44L202.875 506.339L206.217 509.237L206.58 511.757L122.815 513.691V508.659L124.897 508.096C124.897 508.096 131.522 502.619 132.841 497.698C134.16 492.777 135.768 488.864 135.768 488.864L136.25 478.697L136.983 475.873C136.983 475.873 131.967 410.086 136.983 392.255L139.303 389.632L146.683 387.757L152.693 387.387L151.685 378.975L145.972 380.05L140.844 379.027C140.844 379.027 86.5052 383.081 78.4577 380.042C78.4577 380.042 71.218 375.396 68.6466 364.776L68.2761 366.436L67.4239 445.577L66.5866 447.637L66.1568 512.001H62.3702L63.3335 516.707L61.5625 599.028L61.4439 605.601L60.5843 607.128L51.1215 609.114L50.8325 612.338L53.4409 612.842H66.7422V608.321L68.0909 607.106H69.2246L69.4321 603.689L67.0757 603.726L66.7496 597.071H75.3158V594.485H81.9924V580.738L82.5407 578.247V576.284L104.616 576.854H116.679L118.406 575.528L123.252 575.313V554.377L125.92 553.94L145.312 553.443L147.024 554.525L148.01 574.001L148.81 574.527L153.53 574.416L154.783 576.15H163.682L204.898 576.261L220.57 576.15L220.941 582.753V612.049L223.149 612.827L237.325 612.545L237.851 607.713H278.792V573.512H286.017L286.551 576.143L339.274 576.113L381.661 577.936L379.512 123.157L381.579 122.653L381.668 119.815L336.355 94.692L285.454 98.479L284.765 101.228L261.897 103.111L264.209 105.897L265.209 109.729L265.269 182.193L265.106 196.852L262.631 200.639L253.316 202.484L242.453 202.788L241.786 207.242L200.533 210.458L156.465 213.141L154.62 211.911L154.516 209.346L142.215 209.383L137.947 207.242L136.094 200.468L136.339 156.766L136.746 121.72L137.324 116.028L139.125 113.397L139.147 113.368Z" fill="#D24E45"/>
<path d="M154.138 110.04L136.257 101.458L136.25 99.524L267.299 87.5405L267.603 102.244L261.897 103.074L257.518 101.458L210.211 105.445L154.138 110.04Z" fill="#D24E45"/>
<path d="M288.692 97.6712V90.8013L300.074 97.6712H288.692Z" fill="#D24E45"/>
<path d="M123.378 68.8279L149.144 66.286L262.445 56.511L283.676 54.7397L326.744 80.2704V82.9457L320.074 79.6627L315.473 79.7739L314.91 82.212V84.5168L313.576 84.1908L313.331 81.7303L310.938 80.4186L306.284 80.6113L306.01 84.5168L289.255 85.8286L288.403 60.3498L281.971 56.6666H276.658L276.725 58.5267L274.546 58.6305L272.968 57.1779L267.736 57.6893L267.299 87.5405L186.113 94.6624L183.453 93.1802L178.799 90.8754L173.656 91.4683V92.4391L170.055 92.5873L169.707 91.4683H164.942L142.23 79.8331L142.519 72.437L135.879 68.8279L130.551 69.2652V70.777L128.854 70.8882L123.378 68.8279Z" fill="#D24E45"/>
<path d="M254.702 11.1191L257.858 10.7708L267.388 17.1145L267.655 20.0566L260.66 20.19L259.333 19.9307L258.792 29.7575L266.64 35.7826H267.388L267.944 43.616L267.077 44.7128L250.648 46.106V43.9346L241.897 40.3181L219.703 38.3839L206.387 39.7697L197.05 43.2084L196.784 50.1153L187.98 44.7498L186.995 40.1032V31.8104V17.9297L187.595 15.7583L193.397 15.8621L198.888 19.2785L199.199 26.5338L196.554 31.3805L197.732 35.1823L200.541 37.1981L241.875 34.5079L244.75 31.677L245.202 28.4532L243.268 25.0812L241.037 23.9696L202.186 26.5041V18.8931L209.885 19.0636L213.131 20.8793L231.901 19.0043L234.101 17.1145L251.93 15.7435L254.487 16.8625L254.702 11.1191Z" fill="#D24E45"/>
<path d="M198.021 18.9895L203.319 19.3082V26.1559L198.021 27.6677V18.9895Z" fill="#D24E45"/>
<path d="M50.8475 612.286V609.988C50.8475 609.988 50.8105 608.832 51.8257 608.677C52.8409 608.521 61.4589 606.483 61.4589 606.483L62.9484 512.105C62.9484 512.105 62.9261 511.786 63.2522 511.801C63.5782 511.816 66.1644 511.942 66.1644 511.942L66.6016 446.607C66.6016 446.607 66.6905 445.607 67.4315 445.518L68.3133 363.516C68.3133 363.516 66.3719 355.416 68.3133 346.337L69.9732 119.2V116.443C69.9732 116.443 69.8621 115.68 71.2552 115.65C72.6483 115.62 117.184 112.337 117.184 112.337C117.184 112.337 118.095 112.271 118.895 112.856C119.696 113.442 121.267 114.286 121.267 114.286L122.097 114.813L139.162 113.36C139.162 113.36 141.022 110.789 146.439 110.648L258.303 101.725C258.303 101.725 262.794 101.888 264.528 106.542C264.528 106.542 265.343 108.276 265.284 110.603C265.224 112.93 265.284 194.636 265.284 194.636C265.284 194.636 265.654 200.527 260.111 201.676C254.569 202.825 242.653 203.084 242.653 203.084C242.653 203.084 242.238 203.24 242.29 204.967C242.342 206.693 242.705 207.583 239 207.946C235.295 208.309 156.265 213.133 156.265 213.133C156.265 213.133 154.85 213.096 154.79 211.436C154.731 209.776 154.642 208.998 154.642 208.998L142.741 209.369C142.741 209.369 137.347 209.354 136.665 203.944C135.983 198.534 136.865 118.363 136.865 118.363C136.865 118.363 137.087 115.272 139.748 112.775" stroke="black" stroke-width="1.4317" stroke-miterlimit="10"/>
<path d="M142.452 119.326C142.452 119.326 142.067 116.932 144.653 116.732C147.239 116.532 256.317 107.854 256.317 107.854C256.317 107.854 259.022 107.461 259.059 110.492C259.096 113.523 259.096 193.524 259.096 193.524C259.096 193.524 258.911 195.444 256.451 195.718C253.99 195.992 144.26 203.514 144.26 203.514C144.26 203.514 142.274 203.677 142.23 201.691C142.186 199.705 142.452 119.326 142.452 119.326V119.326Z" stroke="#231F20" stroke-width="1.4317" stroke-miterlimit="10"/>
<path d="M144.083 112.649C144.083 112.649 138.451 113.923 138.451 120.341V203.514C138.451 203.514 138.903 207.086 143.319 207.212C147.736 207.338 257.088 199.801 257.088 199.801C257.088 199.801 262.557 199.631 262.616 192.924C262.675 186.217 262.616 108.75 262.616 108.75C262.616 108.75 262.46 103.437 256.658 103.741C250.856 104.045 144.083 112.656 144.083 112.656V112.649Z" stroke="#231F20" stroke-width="1.4317" stroke-miterlimit="10"/>
<path d="M249.644 156.296C250.153 138.421 240.898 123.655 228.973 123.316C217.048 122.977 206.969 137.192 206.46 155.067C205.952 172.942 215.206 187.707 227.131 188.047C239.056 188.386 249.136 174.171 249.644 156.296Z" stroke="#231F20" stroke-width="1.4317" stroke-miterlimit="10"/>
<path d="M195.345 160.43C195.853 142.556 186.599 127.79 174.674 127.451C162.749 127.111 152.669 141.327 152.161 159.201C151.652 177.076 160.907 191.842 172.832 192.181C184.757 192.521 194.836 178.305 195.345 160.43Z" stroke="#231F20" stroke-width="1.4317" stroke-miterlimit="10"/>
<path d="M188.29 163.45C188.653 158.359 185.056 153.955 180.255 153.612C175.455 153.27 171.268 157.119 170.905 162.21C170.542 167.301 174.14 171.706 178.94 172.048C183.741 172.391 187.927 168.541 188.29 163.45Z" fill="#231F20"/>
<path d="M230.778 161.051C231.513 156.001 228.248 151.344 223.485 150.651C218.722 149.958 214.266 153.49 213.531 158.541C212.796 163.592 216.061 168.248 220.824 168.941C225.586 169.635 230.043 166.102 230.778 161.051Z" fill="#231F20"/>
<path d="M183.117 163.007C183.313 161.903 182.672 160.865 181.684 160.69C180.697 160.515 179.738 161.268 179.542 162.372C179.346 163.476 179.987 164.513 180.974 164.689C181.962 164.864 182.921 164.111 183.117 163.007Z" fill="white"/>
<path d="M222.097 160.294C222.39 159.212 221.843 158.122 220.876 157.859C219.908 157.597 218.886 158.262 218.592 159.344C218.299 160.427 218.845 161.517 219.813 161.779C220.781 162.041 221.803 161.377 222.097 160.294Z" fill="white"/>
<path d="M261.734 102.955L284.98 101.362V99.0274C284.98 99.0274 284.928 98.4048 285.876 98.3826C286.825 98.3604 334.413 94.3659 334.413 94.3659C334.413 94.3659 335.695 94.0546 336.918 94.7661L380.601 119.696C380.601 119.696 381.379 120.097 381.468 120.667C381.557 121.238 381.572 122.631 381.572 122.631L379.504 123.135L381.653 577.914L339.267 576.091L339.348 437.558L339.089 351.169L335.636 94.4919" stroke="black" stroke-width="1.4317" stroke-miterlimit="10"/>
<path d="M322.861 105.86C324.4 105.86 325.647 104.613 325.647 103.074C325.647 101.535 324.4 100.287 322.861 100.287C321.322 100.287 320.075 101.535 320.075 103.074C320.075 104.613 321.322 105.86 322.861 105.86Z" stroke="black" stroke-width="1.4317" stroke-miterlimit="10"/>
<path d="M322.861 102.073V104.067" stroke="black" stroke-width="1.4317" stroke-miterlimit="10"/>
<path d="M323.861 103.074H321.868" stroke="black" stroke-width="1.4317" stroke-miterlimit="10"/>
<path d="M80.8143 126.27C82.3531 126.27 83.6005 125.022 83.6005 123.483C83.6005 121.944 82.3531 120.697 80.8143 120.697C79.2755 120.697 78.0281 121.944 78.0281 123.483C78.0281 125.022 79.2755 126.27 80.8143 126.27Z" stroke="black" stroke-width="1.4317" stroke-miterlimit="10"/>
<path d="M80.8142 122.483V124.476" stroke="black" stroke-width="1.4317" stroke-miterlimit="10"/>
<path d="M81.8072 123.483H79.8138" stroke="black" stroke-width="1.4317" stroke-miterlimit="10"/>
<path d="M129.734 125.304C129.8 124.414 129.185 123.643 128.361 123.582C127.536 123.52 126.814 124.192 126.748 125.082C126.682 125.972 127.297 126.743 128.121 126.804C128.946 126.865 129.668 126.193 129.734 125.304Z" fill="black"/>
<path d="M274.265 114.538C275.345 114.538 276.221 113.663 276.221 112.582C276.221 111.501 275.345 110.625 274.265 110.625C273.184 110.625 272.308 111.501 272.308 112.582C272.308 113.663 273.184 114.538 274.265 114.538Z" fill="black"/>
<path d="M121.252 114.294C121.252 114.294 121.318 71.3995 121.318 70.6362C121.318 69.8729 121.926 69.784 121.926 69.784H122.971C122.971 69.0799 123.504 68.5019 124.208 68.4352L282.623 54.7694C282.623 54.7694 283.705 54.5842 284.513 55.1103C285.321 55.6365 325.721 80.2704 325.721 80.2704C325.721 80.2704 326.507 80.6336 326.521 81.4043C326.536 82.175 326.744 94.6698 326.744 94.6698" stroke="black" stroke-width="1.4317" stroke-miterlimit="10"/>
<path d="M122.971 69.7839L126.624 69.5319V114.294L128.855 114.242V70.8362L126.787 69.4355" stroke="black" stroke-width="1.4317" stroke-miterlimit="10"/>
<path d="M128.855 70.8881L130.552 70.777" stroke="black" stroke-width="1.4317" stroke-miterlimit="10"/>
<path d="M131.107 69.0354C131.107 69.0354 130.552 69.1985 130.552 69.7543C130.552 70.3101 130.485 114.109 130.485 114.109L136.257 113.62V69.4356C136.257 69.4356 136.287 68.7983 135.679 68.8279C135.072 68.8576 131.107 69.0354 131.107 69.0354Z" stroke="black" stroke-width="1.4317" stroke-miterlimit="10"/>
<path d="M136.25 69.4356L267.351 58.1636" stroke="black" stroke-width="1.4317" stroke-miterlimit="10"/>
<path d="M136.25 99.5239L267.596 88.1407" stroke="black" stroke-width="1.4317" stroke-miterlimit="10"/>
<path d="M136.257 101.458L267.603 90.075" stroke="black" stroke-width="1.4317" stroke-miterlimit="10"/>
<path d="M136.45 69.2651L139.236 70.7103C139.236 70.7103 139.407 70.7103 139.385 71.7107L139.97 71.8812V71.1475C139.97 71.1475 140.022 70.8066 140.755 71.2439C141.489 71.6811 142.223 72.0516 142.223 72.0516C142.223 72.0516 142.519 72.274 142.519 72.9113V98.9829" stroke="black" stroke-width="1.4317" stroke-miterlimit="10"/>
<path d="M139.384 71.7107V98.9829" stroke="black" stroke-width="1.4317" stroke-miterlimit="10"/>
<path d="M139.977 71.7107V98.9829" stroke="black" stroke-width="1.4317" stroke-miterlimit="10"/>
<path d="M136.769 101.458L154.138 110.04" stroke="black" stroke-width="1.4317" stroke-miterlimit="10"/>
<path d="M139.384 102.985V113.101" stroke="black" stroke-width="1.4317" stroke-miterlimit="10"/>
<path d="M139.977 103.14V112.789" stroke="black" stroke-width="1.4317" stroke-miterlimit="10"/>
<path d="M142.519 104.504V111.181" stroke="black" stroke-width="1.4317" stroke-miterlimit="10"/>
<path d="M272.968 57.178L275.035 58.5786V101.984L272.805 102.036V57.2817L269.152 57.5337L267.818 57.6226C267.818 57.6226 267.529 57.5337 267.544 59.0455C267.559 60.9057 267.603 102.555 267.603 102.555" stroke="black" stroke-width="1.4317" stroke-miterlimit="10"/>
<path d="M275.035 58.6304L276.725 58.5266" stroke="black" stroke-width="1.4317" stroke-miterlimit="10"/>
<path d="M277.281 56.785C277.281 56.785 276.725 56.9481 276.725 57.5039C276.725 58.0597 276.658 101.858 276.658 101.858L282.431 101.369V57.1778C282.431 57.1778 282.46 56.5405 281.853 56.5701C281.245 56.5997 277.281 56.7776 277.281 56.7776V56.785Z" stroke="black" stroke-width="1.4317" stroke-miterlimit="10"/>
<path d="M282.216 56.6665L285.417 58.4525C285.417 58.4525 285.588 58.4525 285.565 59.453L286.151 59.6235V58.8898C286.151 58.8898 286.203 58.5489 286.936 58.9861C287.67 59.4234 288.403 59.7939 288.403 59.7939C288.403 59.7939 288.7 60.0162 288.7 60.6536V98.1603" stroke="black" stroke-width="1.4317" stroke-miterlimit="10"/>
<path d="M285.565 59.4604V98.3826" stroke="black" stroke-width="1.4317" stroke-miterlimit="10"/>
<path d="M286.158 59.4604V98.3826" stroke="black" stroke-width="1.4317" stroke-miterlimit="10"/>
<path d="M288.403 59.8013L326.551 82.9456" stroke="black" stroke-width="1.4317" stroke-miterlimit="10"/>
<path d="M311.123 96.315V80.2704L307.574 80.5224L306.284 80.6113C306.284 80.6113 306.003 80.5224 306.018 82.0342C306.018 82.7382 306.032 89.0894 306.04 96.7375" stroke="black" stroke-width="1.4317" stroke-miterlimit="10"/>
<path d="M311.279 80.1665L313.287 81.5746V96.389" stroke="black" stroke-width="1.4317" stroke-miterlimit="10"/>
<path d="M320.467 95.5368V80.174C320.467 80.174 320.489 79.5367 319.904 79.5663C319.319 79.596 315.465 79.7738 315.465 79.7738C315.465 79.7738 314.932 79.9369 314.924 80.4927C314.924 80.715 314.917 87.6665 314.902 96.0037" stroke="black" stroke-width="1.4317" stroke-miterlimit="10"/>
<path d="M320.26 79.6626L323.372 81.4486C323.372 81.4486 323.535 81.4486 323.513 82.4491L324.084 82.6196V81.8859C324.084 81.8859 324.128 81.545 324.847 81.9822C325.566 82.4195 326.27 82.79 326.27 82.79C326.27 82.79 326.551 83.0123 326.551 83.6497V94.6623" stroke="black" stroke-width="1.4317" stroke-miterlimit="10"/>
<path d="M323.513 82.4491V95.2774" stroke="black" stroke-width="1.4317" stroke-miterlimit="10"/>
<path d="M324.091 82.4491V95.2329" stroke="black" stroke-width="1.4317" stroke-miterlimit="10"/>
<path d="M142.519 79.8331L164.942 91.4683" stroke="black" stroke-width="1.4317" stroke-miterlimit="10"/>
<path d="M164.942 96.767V92.3575C164.942 92.3575 164.801 91.4163 165.728 91.4608L169.448 91.2829C169.448 91.2829 170.174 91.2829 170.448 91.7054L171.293 92.5873L173.671 92.4316V91.4608C173.671 91.4608 173.597 91.0903 174.746 91.0903C175.894 91.0903 178.392 90.8976 178.392 90.8976C178.392 90.8976 179.007 90.779 179.429 91.0532C179.852 91.3274 181.082 92.2834 181.082 92.2834V95.3515" stroke="black" stroke-width="1.4317" stroke-miterlimit="10"/>
<path d="M173.657 92.4391V96.0037" stroke="black" stroke-width="1.4317" stroke-miterlimit="10"/>
<path d="M170.055 91.4683V96.4262" stroke="black" stroke-width="1.4317" stroke-miterlimit="10"/>
<path d="M171.285 92.5873V96.4261" stroke="black" stroke-width="1.4317" stroke-miterlimit="10"/>
<path d="M182.534 95.2404V93.4988C182.534 93.4988 182.504 92.8096 183.156 93.106C183.809 93.4025 184.898 93.9435 184.898 93.9435C184.898 93.9435 185.061 94.0695 185.061 94.5067V95.2923" stroke="black" stroke-width="1.4317" stroke-miterlimit="10"/>
<path d="M181.185 93.032L182.401 93.825" stroke="black" stroke-width="1.4317" stroke-miterlimit="10"/>
<path d="M288.693 85.8656L306.01 84.5168" stroke="black" stroke-width="1.4317" stroke-miterlimit="10"/>
<path d="M185.239 94.0696L267.299 87.5405" stroke="black" stroke-width="1.4317" stroke-miterlimit="10"/>
<path d="M288.693 90.8013L299.756 97.2562L296.94 97.4933L288.693 92.8763" stroke="black" stroke-width="1.4317" stroke-miterlimit="10"/>
<path d="M196.784 62.1728L197.058 44.6534C197.058 44.6534 197.258 40.7404 210.974 39.0285C224.69 37.3165 239.155 39.4435 243.223 40.6663C247.292 41.8891 250.582 43.6381 250.648 44.9276V57.1926" stroke="black" stroke-width="1.4317" stroke-miterlimit="10"/>
<path d="M267.751 35.1821C267.855 39.8288 267.936 43.6158 267.936 43.6158C267.936 43.6158 267.64 45.0979 265.269 45.2165C262.898 45.3351 250.641 46.1058 250.641 46.1058" stroke="black" stroke-width="1.4317" stroke-miterlimit="10"/>
<path d="M196.784 50.1153L189.011 45.4465C186.965 44.5497 186.995 42.5117 186.995 42.5117C186.995 42.5117 187.054 21.1386 186.995 18.7004C186.936 16.2622 188.314 16.2029 188.314 16.2029L193.308 15.9954L198.985 19.3674L209.003 18.7745C209.003 18.7745 210.485 18.1817 212.086 20.3753L232.716 18.9524C232.716 18.9524 233.19 17.4109 233.783 17.1145C234.376 16.818 252.042 15.7509 252.042 15.7509C252.042 15.7509 253.405 15.9287 254.235 17.1145V12.4308C254.235 12.4308 254.176 10.83 255.539 10.7707C256.903 10.7114 257.851 10.7707 257.851 10.7707C257.851 10.7707 258.563 11.0672 259.393 11.7193C260.223 12.3715 266.566 16.6402 266.566 16.6402C266.566 16.6402 267.277 17.2923 267.336 18.3002C267.336 18.4262 267.359 18.9005 267.381 19.6416" stroke="black" stroke-width="1.4317" stroke-miterlimit="10"/>
<path d="M254.242 17.1145V37.0202C254.242 37.0202 254.072 38.7099 255.191 39.3325C256.31 39.955 258.192 41.3927 258.192 41.3927L247.714 42.4006" stroke="black" stroke-width="1.4317" stroke-miterlimit="10"/>
<path d="M257.859 10.7708V37.5168C257.859 37.5168 257.629 38.1245 258.192 38.3839C258.755 38.6432 266.506 44.5794 266.506 44.5794C266.506 44.5794 266.884 44.8462 267.07 44.7128" stroke="black" stroke-width="1.4317" stroke-miterlimit="10"/>
<path d="M239.328 25.0168L201.791 27.4312C199.557 27.5749 197.862 29.5026 198.006 31.7368L198.031 32.1288C198.175 34.363 200.103 36.0577 202.337 35.914L239.873 33.4996C242.107 33.3559 243.802 31.4282 243.658 29.194L243.633 28.802C243.489 26.5678 241.562 24.8731 239.328 25.0168Z" fill="black"/>
<path d="M239.408 23.8528L201.694 26.2787C198.656 26.4741 196.351 29.0961 196.546 32.1349C196.742 35.1738 199.363 37.4788 202.402 37.2834L240.116 34.8575C243.154 34.6621 245.459 32.0401 245.264 29.0013C245.068 25.9624 242.447 23.6573 239.408 23.8528Z" stroke="black" stroke-width="1.4317" stroke-miterlimit="10"/>
<path d="M128.262 67.7903V65.7597C128.262 65.7597 127.98 64.0404 130.011 64.0404C130.011 64.0404 132.523 63.8773 133.19 64.0404C133.857 64.2034 135.294 63.9959 135.427 65.4558V67.353" stroke="black" stroke-width="1.4317" stroke-miterlimit="10"/>
<path d="M274.546 55.4659V53.1092C274.546 53.1092 274.531 51.8271 276.132 51.6863C276.132 51.6863 278.111 51.338 280.615 51.6863C280.615 51.6863 281.831 51.9605 281.934 52.9017C282.038 53.8429 281.934 54.6062 281.934 54.6062" stroke="black" stroke-width="1.4317" stroke-miterlimit="10"/>
<path d="M326.907 262.964C327.987 262.964 328.863 262.089 328.863 261.008C328.863 259.927 327.987 259.052 326.907 259.052C325.826 259.052 324.951 259.927 324.951 261.008C324.951 262.089 325.826 262.964 326.907 262.964Z" fill="black"/>
<path d="M326.907 274.021C327.987 274.021 328.863 273.146 328.863 272.065C328.863 270.984 327.987 270.109 326.907 270.109C325.826 270.109 324.951 270.984 324.951 272.065C324.951 273.146 325.826 274.021 326.907 274.021Z" fill="black"/>
<path d="M79.9379 276.075C79.956 274.994 79.2409 274.106 78.3407 274.091C77.4405 274.076 76.696 274.94 76.6779 276.02C76.6598 277.1 77.3749 277.988 78.2752 278.004C79.1754 278.019 79.9198 277.155 79.9379 276.075Z" fill="black"/>
<path d="M79.9439 286.717C79.962 285.637 79.2468 284.749 78.3466 284.734C77.4464 284.719 76.7019 285.582 76.6838 286.663C76.6657 287.743 77.3808 288.631 78.2811 288.646C79.1813 288.661 79.9258 287.798 79.9439 286.717Z" fill="black"/>
<path d="M193.405 16.3288C193.405 16.3288 192.797 15.2765 192.812 19.686C192.812 20.9533 192.797 21.4646 192.301 21.4943C191.804 21.5239 189.44 21.5684 189.44 21.5684C189.44 21.5684 188.855 21.6869 188.884 22.2724C188.914 22.8579 188.884 35.5454 188.884 35.5454C188.884 35.5454 188.736 36.2494 189.351 36.2198C189.966 36.1901 192.271 35.953 192.271 35.953C192.271 35.953 192.916 35.8048 192.856 36.7459C192.797 37.6871 192.886 42.0225 192.886 42.0225C192.886 42.0225 192.886 42.8081 193.931 43.3935C194.976 43.979 197.043 45.2833 197.043 45.2833" stroke="black" stroke-width="1.4317" stroke-miterlimit="10"/>
<path d="M192.76 72.8446L210.841 83.7461C210.922 83.7979 211.026 83.8202 211.123 83.8128L256.717 79.3514C257.162 79.3069 257.288 78.7215 256.903 78.4991L238.333 67.5828C238.251 67.531 238.155 67.5087 238.051 67.5236L192.938 71.9997C192.501 72.0442 192.367 72.6223 192.745 72.852L192.76 72.8446Z" stroke="black" stroke-width="1.4317" stroke-miterlimit="10"/>
<path d="M203.32 32.7516C203.823 32.7516 204.231 32.3434 204.231 31.84C204.231 31.3366 203.823 30.9285 203.32 30.9285C202.816 30.9285 202.408 31.3366 202.408 31.84C202.408 32.3434 202.816 32.7516 203.32 32.7516Z" fill="white"/>
<path d="M216.087 31.8177C216.578 31.8177 216.977 31.4195 216.977 30.9284C216.977 30.4372 216.578 30.0391 216.087 30.0391C215.596 30.0391 215.198 30.4372 215.198 30.9284C215.198 31.4195 215.596 31.8177 216.087 31.8177Z" fill="white"/>
<path d="M218.814 31.6768C219.306 31.6768 219.704 31.2787 219.704 30.7875C219.704 30.2964 219.306 29.8982 218.814 29.8982C218.323 29.8982 217.925 30.2964 217.925 30.7875C217.925 31.2787 218.323 31.6768 218.814 31.6768Z" fill="white"/>
<path d="M231.011 30.9283C231.503 30.9283 231.901 30.5301 231.901 30.039C231.901 29.5478 231.503 29.1497 231.011 29.1497C230.52 29.1497 230.122 29.5478 230.122 30.039C230.122 30.5301 230.52 30.9283 231.011 30.9283Z" fill="white"/>
<path d="M238.273 30.7136C238.896 30.7136 239.4 30.2093 239.4 29.5872C239.4 28.965 238.896 28.4607 238.273 28.4607C237.651 28.4607 237.147 28.965 237.147 29.5872C237.147 30.2093 237.651 30.7136 238.273 30.7136Z" fill="white"/>
<path d="M258.814 20.8272C258.814 20.8272 258.585 19.5821 259.452 19.6118C259.911 19.6266 260.119 19.797 260.215 19.9527C260.311 20.1083 260.474 20.2047 260.66 20.1898L273.524 19.1449C273.524 19.1449 274.28 18.8855 275.147 19.3746C276.013 19.8637 280.889 23.5544 280.889 23.5544C280.889 23.5544 281.586 23.9027 281.675 24.8587C281.764 25.8147 281.675 32.781 281.675 32.781C281.675 32.781 281.616 34.0853 280.052 34.1446C278.488 34.2039 267.077 35.2488 267.077 35.2488C267.077 35.2488 265.95 35.4489 265.372 34.7523C264.794 34.0557 259.541 30.5725 259.541 30.5725C259.541 30.5725 258.785 29.5276 258.785 28.6605C258.785 27.7934 258.814 20.8272 258.814 20.8272V20.8272Z" stroke="black" stroke-width="1.4317" stroke-miterlimit="10"/>
<path d="M259.333 30.2465L273.131 28.9422C273.131 28.9422 274.317 28.6754 274.739 28.8903C275.702 29.3721 280.801 32.7885 280.801 32.7885C280.801 32.7885 281.342 33.248 280.86 33.9668" stroke="black" stroke-width="1.4317" stroke-miterlimit="10"/>
<path d="M274.569 19.0784V28.5866" stroke="black" stroke-width="1.4317" stroke-miterlimit="10"/>
<path d="M281.164 254.271C281.164 254.271 275.028 242.947 267.107 248.891C259.185 254.835 262.579 284.278 264.654 287.583C264.654 287.583 268.715 298.433 278.244 295.891C287.774 293.349 285.225 260.126 281.171 254.271H281.164Z" stroke="black" stroke-width="1.4317" stroke-miterlimit="10"/>
<path d="M272.968 247.172C272.968 247.172 246.61 244.711 196.324 251.211C196.324 251.211 185.135 250.751 178.466 251.166" stroke="black" stroke-width="1.4317" stroke-miterlimit="10"/>
<path d="M279.941 295.024C279.941 295.024 277.666 297.514 260.652 299.589C260.652 299.589 255.895 301.057 255.895 309.839C255.895 318.621 253.835 340.742 253.375 346.663C252.916 352.585 252.19 362.775 255.206 375.618C258.222 388.461 258.607 395.768 258.607 398.288C258.607 400.808 259.452 404.039 262.898 404.358C266.343 404.676 270.582 405.047 271.805 405.684C273.027 406.321 283.194 412.183 282.201 433.623C281.208 455.063 275.628 459.221 269.678 458.628C263.727 458.035 256.984 453.573 256.591 431.459C256.199 409.345 263.861 403.794 270.508 405.276" stroke="black" stroke-width="1.4317" stroke-miterlimit="10"/>
<path d="M177.021 255.22C177.021 255.22 202.927 261.341 208.255 264.172C213.583 267.003 222.075 268.5 221.415 287.828C220.756 307.156 203.26 310.646 203.26 310.646C203.26 310.646 202.26 310.587 202.927 316.568C203.594 322.548 204.498 383.162 202.564 395.323C200.63 407.485 197.836 406.188 197.836 406.188L194.902 406.225C194.902 406.225 193.368 404.372 193.575 398.229" stroke="black" stroke-width="1.4317" stroke-miterlimit="10"/>
<path d="M68.3058 346.345C68.3058 346.345 70.5956 334.791 79.1099 332.657C87.6242 330.522 93.4486 332.516 102.393 328.395C102.393 328.395 108.217 325.698 109.492 323.993C109.492 323.993 111.196 319.169 120.992 311.358C130.789 303.547 133.486 292.897 133.486 292.897C133.486 292.897 138.843 301.62 150.589 300.175C162.334 298.73 175.087 287.272 172.627 269.582C172.627 269.582 172.508 266.492 170.596 263.053" stroke="black" stroke-width="1.4317" stroke-miterlimit="10"/>
<path d="M148.847 300.315C148.847 300.315 156.146 305.548 167.173 302.005C178.199 298.463 184.023 286.813 184.023 279.328C184.023 279.328 184.327 264.491 176.739 258.036" stroke="black" stroke-width="1.4317" stroke-miterlimit="10"/>
<path d="M175.072 259.874C175.072 259.874 182.979 267.47 181 281.825C179.022 296.18 164.06 303.235 153.279 302.324" stroke="black" stroke-width="1.4317" stroke-miterlimit="10"/>
<path d="M142.623 293.779C142.623 293.779 158.154 298.152 164.824 284.701C164.824 284.701 170.73 275.185 165.372 265.669" stroke="black" stroke-width="1.4317" stroke-miterlimit="10"/>
<path d="M106.446 244.867C106.446 244.867 106.113 244.837 107.965 246.319C109.818 247.802 119.584 257.154 119.584 257.154H121.015C122.274 257.154 122.615 258.236 121.859 258.829C121.104 259.422 117.31 263.972 117.31 263.972L103.075 259.867C103.075 259.867 102.067 258.666 100.97 260.267C99.8734 261.868 99.288 262.712 99.288 262.712L96.5907 262.12C94.9901 262.038 95.1605 261.445 94.6566 260.519C94.1527 259.592 99.3695 252.856 99.3695 252.856C105.098 246.201 108.432 242.614 108.832 242.614C109.232 242.614 112.019 244.259 112.019 244.259H113.56L114.805 245.304V246.149C114.805 246.149 123.719 255.213 125.157 256.154C126.595 257.095 127.743 255.902 127.743 255.902C127.743 255.902 128.736 254.657 130.581 252.811C132.426 250.966 133.916 252.367 133.916 252.367C133.916 252.367 147.454 266.359 148.603 267.455C149.751 268.552 149.396 269.301 149.396 269.301C149.396 269.301 147.454 271.494 145.861 273.384C144.268 275.274 145.661 276.571 145.661 276.571C145.661 276.571 150.441 281.647 151.337 282.5C152.234 283.352 151.337 283.693 151.337 283.693C151.337 283.693 149.144 286.783 145.713 290.318C142.282 293.853 142.615 293.786 141.333 293.853C140.051 293.92 138.347 292.905 136.554 292.208C134.761 291.511 136.554 290.066 136.554 290.066" stroke="black" stroke-width="1.4317" stroke-miterlimit="10"/>
<path d="M234.939 247.728C233.827 248.891 231.864 251.967 233.975 258.006C236.791 266.055 243.431 283.648 258.118 296.277C258.118 296.277 261.06 299.782 266.551 298.767" stroke="black" stroke-width="1.4317" stroke-miterlimit="10"/>
<path d="M193.635 251.211C193.635 251.211 188.685 252.011 187.099 257.428" stroke="black" stroke-width="1.4317" stroke-miterlimit="10"/>
<path d="M197.806 251.018C197.806 251.018 191.886 252.478 190.055 258.036" stroke="black" stroke-width="1.4317" stroke-miterlimit="10"/>
<path d="M212.575 306.103C212.575 306.103 240.185 303.925 255.962 308.045" stroke="black" stroke-width="1.4317" stroke-miterlimit="10"/>
<path d="M206.306 309.675C206.306 309.675 242.556 306.348 255.873 311.321" stroke="black" stroke-width="1.4317" stroke-miterlimit="10"/>
<path d="M203.29 324.349C203.29 324.349 210.745 352.814 203.542 378.367" stroke="black" stroke-width="1.4317" stroke-miterlimit="10"/>
<path d="M151.574 301.509C151.574 301.509 154.872 320.57 151.574 325.364C148.277 330.159 147.928 328.729 139.851 328.084" stroke="black" stroke-width="1.4317" stroke-miterlimit="10"/>
<path d="M153.041 311.321C153.041 311.321 159.755 307.912 177.784 308.586C195.813 309.26 203.26 310.646 203.26 310.646" stroke="black" stroke-width="1.4317" stroke-miterlimit="10"/>
<path d="M153.041 315.597C153.041 315.597 163.927 312.773 179.874 313.396C195.82 314.018 202.927 316.56 202.927 316.56" stroke="black" stroke-width="1.4317" stroke-miterlimit="10"/>
<path d="M143.653 328.796C143.653 328.796 132.967 334.183 135.279 356.713C137.591 379.242 142.089 378.975 142.089 378.975" stroke="black" stroke-width="1.4317" stroke-miterlimit="10"/>
<path d="M91.5368 331.189C91.5368 331.189 93.5746 344.485 99.6732 359.722C105.772 374.958 109.247 380.865 109.247 380.865" stroke="black" stroke-width="1.4317" stroke-miterlimit="10"/>
<path d="M110.485 322.17C110.485 322.17 118.94 314.374 132.856 320.051C132.856 320.051 139.421 322.837 144.105 327.847L144.653 328.484L147.224 328.803C147.224 328.803 137.147 337.17 139.503 356.72C141.859 376.27 151.433 377.322 151.433 377.322L151.685 378.931L153.605 395.012C153.605 395.012 154.961 396.843 160.659 397.606C166.358 398.37 185.691 400.667 202.556 395.309C202.556 395.309 239.629 391.411 258.54 396.198" stroke="black" stroke-width="1.4317" stroke-miterlimit="10"/>
<path d="M114.464 317.257C114.464 317.257 121.148 314.322 131.063 316.256C140.978 318.191 148.84 328.077 148.84 328.077" stroke="black" stroke-width="1.4317" stroke-miterlimit="10"/>
<path d="M99.288 262.713L97.2576 265.669C97.2576 265.669 96.1979 265.877 99.7844 267.678C103.371 269.479 134.39 290.126 134.39 290.126C134.39 290.126 135.776 291.511 138.392 287.924C139.955 285.768 141.674 283.908 142.793 282.766C143.393 282.159 143.23 281.136 142.475 280.736L103.082 259.874" stroke="black" stroke-width="1.4317" stroke-miterlimit="10"/>
<path d="M100.288 251.796C100.288 251.796 97.2427 255.791 101 255.857C104.757 255.924 119.584 257.147 119.584 257.147" stroke="black" stroke-width="1.4317" stroke-miterlimit="10"/>
<path d="M104.631 246.623L115.961 256.917" stroke="black" stroke-width="1.4317" stroke-miterlimit="10"/>
<path d="M103.282 248.876L112.122 256.561" stroke="black" stroke-width="1.4317" stroke-miterlimit="10"/>
<path d="M101.296 250.64L108.239 256.28" stroke="black" stroke-width="1.4317" stroke-miterlimit="10"/>
<path d="M99.3694 252.856L103.504 255.969" stroke="black" stroke-width="1.4317" stroke-miterlimit="10"/>
<path d="M116.413 263.713L129.944 268.234L138.14 278.438" stroke="black" stroke-width="1.4317" stroke-miterlimit="10"/>
<path d="M125.987 266.966L131.641 275.059" stroke="black" stroke-width="1.4317" stroke-miterlimit="10"/>
<path d="M122.4 265.714L125.987 272.206" stroke="black" stroke-width="1.4317" stroke-miterlimit="10"/>
<path d="M118.087 264.276L120.622 269.16" stroke="black" stroke-width="1.4317" stroke-miterlimit="10"/>
<path d="M114.168 263.342L115.257 266.24" stroke="black" stroke-width="1.4317" stroke-miterlimit="10"/>
<path d="M118.851 250.21C118.851 250.21 120.444 249.736 121.044 249.936C121.489 250.084 124.031 252.545 125.29 253.782C125.676 254.16 126.298 254.145 126.661 253.745L131.648 248.35C131.648 248.35 133.041 246.705 135.138 247.513C135.531 247.661 135.976 247.572 136.243 247.246L136.606 246.809C136.939 246.408 137.532 246.342 137.94 246.668C138.458 247.083 139.288 247.883 140.585 249.402C143.623 252.967 153.59 262.735 153.59 262.735C153.59 262.735 154.909 263.535 153.983 264.788C153.056 266.04 152.99 266.099 153.783 266.959C154.575 267.819 153.716 269.138 152.464 270.59C151.211 272.043 146.513 277.453 146.513 277.453" stroke="black" stroke-width="1.4317" stroke-miterlimit="10"/>
<path d="M152.093 282.559L161.259 272.08C161.259 272.08 162.623 270.716 161.259 268.752L160.822 268.234L162.571 266.292" stroke="black" stroke-width="1.4317" stroke-miterlimit="10"/>
<path d="M154.286 263.713C154.286 263.713 158.021 266.07 164.038 266.284C164.223 266.284 164.409 266.255 164.579 266.173L169.751 263.713C169.751 263.713 170.122 263.15 169.751 262.816C169.751 262.816 170.537 263.72 171.686 262.816C172.041 262.535 172.293 262.312 172.478 262.127C172.782 261.823 172.893 261.386 172.767 260.978L172.716 260.8C172.716 260.8 175.687 260.556 176.739 258.036C176.739 258.036 177.399 256.932 176.739 255.939C176.309 255.472 176.347 254.738 176.828 254.316C177.666 253.575 178.155 252.508 178.473 251.203C178.473 251.203 178.584 251.07 178.57 250.744C178.54 250.151 178.088 248.913 175.702 246.734C175.687 246.72 175.665 246.697 175.65 246.683L159.718 229.845C159.718 229.845 159.681 229.801 159.651 229.778C159.34 229.504 157.013 227.488 154.294 227.436C151.374 227.385 150.818 228.429 152.975 230.364C152.975 230.364 170.292 249.632 171.648 250.225C171.671 250.232 173.671 252.011 173.694 252.026C174.175 252.27 178.962 254.212 178.473 250.262" stroke="black" stroke-width="1.4317" stroke-miterlimit="10"/>
<path d="M152.093 227.792C152.093 227.792 150.722 228.14 149.685 229.319C149.07 230.023 149.107 231.09 149.722 231.787C150.27 232.409 151.144 233.38 152.56 234.892C155.998 238.575 168.729 253.382 170.092 253.782C170.092 253.782 174.183 256.621 176.821 254.323" stroke="black" stroke-width="1.4317" stroke-miterlimit="10"/>
<path d="M150.64 228.889C150.64 228.889 145.313 227.814 144.823 229.964C144.334 232.113 167.21 255.605 169.062 256.561C169.062 256.561 174.057 260.86 177.028 256.917" stroke="black" stroke-width="1.4317" stroke-miterlimit="10"/>
<path d="M144.823 229.971C144.823 229.971 141.348 231.572 142.623 234.462C143.897 237.352 167.173 262.334 170.596 263.061" stroke="black" stroke-width="1.4317" stroke-miterlimit="10"/>
<path d="M142.623 234.462C142.623 234.462 141.252 236.633 141.489 237.034C141.637 237.278 142.237 238.138 142.675 238.76C142.956 239.161 142.971 239.694 142.712 240.109C141.934 241.325 140.474 243.881 141.015 245.141C141.741 246.831 145.513 256.762 155.798 259.867C155.798 259.867 157.436 259.904 159.77 257.962C160.118 257.673 160.629 257.695 160.948 258.014C162.104 259.185 164.898 261.897 168.091 264.276" stroke="black" stroke-width="1.4317" stroke-miterlimit="10"/>
<path d="M142.045 237.856C142.045 237.856 139.384 243.451 141.007 245.141" stroke="black" stroke-width="1.4317" stroke-miterlimit="10"/>
<path d="M146.261 240.072C146.261 240.072 144.097 239.798 143.957 242.621C143.957 242.621 143.675 243.526 147.232 246.72C150.789 249.914 157.325 256.747 157.325 256.747C157.325 256.747 158.873 257.517 159.644 255.909C160.415 254.301 159.644 253.53 159.644 253.53L147.239 240.272L146.254 240.079L146.261 240.072Z" stroke="black" stroke-width="1.4317" stroke-miterlimit="10"/>
<path d="M191.737 258.925C191.737 258.925 210.293 270.82 210.144 287.732C209.996 304.643 203.282 306.785 203.282 306.785" stroke="black" stroke-width="1.4317" stroke-miterlimit="10"/>
<path d="M204.979 300.916C204.979 300.916 202.26 305.525 202.771 314.937" stroke="black" stroke-width="1.4317" stroke-miterlimit="10"/>
<path d="M282.268 266.744C282.268 266.744 282.068 256.013 274.984 253.931C267.899 251.848 266.751 262.787 267.069 268.93C267.388 275.074 267.158 285.516 274.65 288.829C282.142 292.141 283.387 279.217 282.275 266.744H282.268Z" stroke="black" stroke-width="1.4317" stroke-miterlimit="10"/>
</g>
</g>
<defs>
<clipPath id="clip0_353_1059">
<rect width="428" height="335" rx="30" fill="white"/>
</clipPath>
<clipPath id="clip1_353_1059">
<rect width="417.342" height="718" fill="white" transform="translate(-19.342 10)"/>
</clipPath>
</defs>
</svg>
